<svg width="148" height="40" viewBox="0 0 148 40" fill="none" xmlns="http://www.w3.org/2000/svg">
<rect width="148" height="40" rx="20" fill="url(#paint0_linear_227_191)"/>
<rect x="0.5" y="0.5" width="147" height="39" rx="19.5" stroke="url(#paint1_linear_227_191)" stroke-opacity="0.82"/>
<path d="M51.2375 12.7422L52.4875 12.9297C52.2687 13.9401 52.0135 14.8828 51.7219 15.7578H56.5031V16.8203H55.5187C55.2583 19.8828 54.5917 22.3151 53.5187 24.1172C54.3625 25.263 55.4354 26.2005 56.7375 26.9297C56.4042 27.388 56.1229 27.7995 55.8937 28.1641C54.6229 27.3411 53.5656 26.362 52.7219 25.2266C51.7635 26.4141 50.6229 27.4453 49.3 28.3203C49.0708 28.0182 48.774 27.6901 48.4094 27.3359C49.8677 26.3776 51.05 25.2891 51.9562 24.0703C51.1125 22.612 50.5552 20.9297 50.2844 19.0234C50.0656 19.4089 49.8365 19.7682 49.5969 20.1016C49.3885 19.7995 49.1281 19.4661 48.8156 19.1016C50.024 17.362 50.8312 15.2422 51.2375 12.7422ZM41.175 21.7578H43.55C43.7792 21.362 44.0031 20.9557 44.2219 20.5391L45.3469 20.8984C45.1802 21.1901 45.0135 21.4766 44.8469 21.7578H48.675V22.7734C48.2792 23.7943 47.6802 24.6901 46.8781 25.4609C47.451 25.7318 48.0344 26.0026 48.6281 26.2734L47.9406 27.3516C47.2948 26.987 46.6229 26.6224 45.925 26.2578C44.7479 27.1016 43.2635 27.7682 41.4719 28.2578C41.3052 27.9245 41.1281 27.5599 40.9406 27.1641C42.4615 26.8203 43.7479 26.3255 44.8 25.6797C43.9042 25.2214 42.9667 24.7526 41.9875 24.2734C42.3208 23.7943 42.6437 23.2995 42.9562 22.7891H41.175V21.7578ZM41.3469 16.3828H44.9406V12.8828H46.0969V16.3828H49.0969V17.4141H46.0969V18.3672L46.5656 17.8359C47.5344 18.5443 48.3469 19.1693 49.0031 19.7109L48.2531 20.5859C47.6802 20.0443 46.9615 19.4349 46.0969 18.7578V20.5391H44.9406V18.3516C43.9927 19.3411 42.8885 20.2109 41.6281 20.9609C41.4302 20.6589 41.2062 20.3411 40.9562 20.0078C42.2687 19.2995 43.4719 18.4349 44.5656 17.4141H41.3469V16.3828ZM54.2687 16.8203H51.3469C51.2948 16.9557 51.2375 17.0859 51.175 17.2109C51.3625 19.4193 51.8833 21.3099 52.7375 22.8828C53.5708 21.362 54.0812 19.3411 54.2687 16.8203ZM43.5187 23.9141C44.2583 24.2474 45.0187 24.5964 45.8 24.9609C46.5187 24.3464 47.0812 23.6224 47.4875 22.7891H44.2375C43.9979 23.1745 43.7583 23.5495 43.5187 23.9141ZM48.3937 13.2734L49.3625 13.9141C48.7896 14.6641 48.2167 15.3568 47.6437 15.9922C47.4042 15.7839 47.1229 15.5651 46.8 15.3359C47.3417 14.7005 47.8729 14.013 48.3937 13.2734ZM41.7531 13.9609L42.6437 13.3516C43.1125 13.9245 43.5969 14.5391 44.0969 15.1953L43.1281 15.8828C42.6698 15.2057 42.2115 14.5651 41.7531 13.9609ZM57.9125 21.9297H65.2406V20.9453L68.3187 19.0078H60.7562V17.8672H70.225V19.1328L66.5219 21.5078V21.9297H73.35V23.0859H66.5219V25.9609C66.5219 27.2839 65.8604 27.9453 64.5375 27.9453C64.0062 27.9453 63.2302 27.9349 62.2094 27.9141C62.1677 27.5182 62.1052 27.0547 62.0219 26.5234C62.8448 26.638 63.574 26.6953 64.2094 26.6953C64.8969 26.6953 65.2406 26.3255 65.2406 25.5859V23.0859H57.9125V21.9297ZM58.5062 15.0391H65.6937C65.3083 14.4922 64.8448 13.8932 64.3031 13.2422L65.35 12.5391C66.0062 13.2578 66.5479 13.9245 66.975 14.5391L66.2328 15.0391H72.8187V18.2109H71.5531V16.1797H59.7562V18.2109H58.5062V15.0391ZM74.775 21.8359H76.9312V14.3672H80.5016C80.7463 13.7526 80.9469 13.1797 81.1031 12.6484L82.4156 12.9766C82.2177 13.4245 82.0068 13.888 81.7828 14.3672H87.4469V21.0078C88.1292 20.4974 88.7854 19.9609 89.4156 19.3984L90.1969 20.2578C89.3167 21.013 88.4 21.7266 87.4469 22.3984V25.5234C87.4469 27.0964 86.7594 27.888 85.3844 27.8984C84.5302 27.9193 83.6656 27.9089 82.7906 27.8672C82.7281 27.5026 82.6448 27.0703 82.5406 26.5703C83.301 26.6432 84.1187 26.6797 84.9937 26.6797C85.8062 26.6797 86.2125 26.2526 86.2125 25.3984V23.2266C83.0354 25.2682 79.4469 26.8828 75.4469 28.0703C75.249 27.6641 75.0146 27.2682 74.7437 26.8828C78.426 25.9349 81.7229 24.6016 84.6344 22.8828H74.775V21.8359ZM78.1656 21.8359H86.2125V20.3516H78.1656V21.8359ZM86.2125 15.4141H78.1656V16.8828H86.2125V15.4141ZM78.1656 19.3516H86.2125V17.8828H78.1656V19.3516ZM96.8719 19.3672H104.684C104.674 19.513 104.596 21.4193 104.45 25.0859C104.408 26.8776 103.591 27.7839 101.997 27.8047C101.143 27.8047 100.398 27.7891 99.7625 27.7578C99.7104 27.2786 99.6323 26.8464 99.5281 26.4609C100.247 26.5547 100.971 26.612 101.7 26.6328C102.71 26.7057 103.221 26.1432 103.231 24.9453C103.315 23.5495 103.377 22.0547 103.419 20.4609H99.9031C99.8719 22.1172 99.6219 23.487 99.1531 24.5703C98.5906 25.8099 97.6219 26.9714 96.2469 28.0547C95.976 27.7214 95.674 27.3828 95.3406 27.0391C96.6635 26.0078 97.5437 25.0182 97.9812 24.0703C98.4083 23.2318 98.6453 22.0286 98.6922 20.4609H96.8719V19.3672ZM91.3875 20.1172C92.8771 18.1484 94.0854 15.7057 95.0125 12.7891L96.2312 13.2109C95.726 14.5964 95.174 15.8932 94.575 17.1016V28.0234H93.3875V19.2734C92.9083 20.0651 92.4083 20.8099 91.8875 21.5078C91.7312 21.0599 91.5646 20.5964 91.3875 20.1172ZM101.216 13.2109L102.247 12.7734C103.278 15.4193 104.867 17.3516 107.012 18.5703C106.617 19.0286 106.32 19.4089 106.122 19.7109C103.799 18.1172 102.164 15.9505 101.216 13.2109ZM95.1687 19.1484C96.7937 17.7214 98.1062 15.8099 99.1062 13.4141L100.216 13.8359C99.2469 16.263 97.8771 18.3203 96.1062 20.0078C95.7312 19.6224 95.4187 19.3359 95.1687 19.1484Z" fill="#F5B6FF"/>
<defs>
<linearGradient id="paint0_linear_227_191" x1="74" y1="0" x2="74" y2="40" gradientUnits="userSpaceOnUse">
<stop stop-color="#4200FF" stop-opacity="0"/>
<stop offset="1" stop-color="#2400FF" stop-opacity="0.14"/>
</linearGradient>
<linearGradient id="paint1_linear_227_191" x1="74" y1="0" x2="74" y2="40" gradientUnits="userSpaceOnUse">
<stop stop-color="#BF80FF" stop-opacity="0.59"/>
<stop offset="1" stop-color="#BF80FF"/>
</linearGradient>
</defs>
</svg>
