<svg width="19" height="16" viewBox="0 0 19 16" fill="none" xmlns="http://www.w3.org/2000/svg">
<path d="M13.272 2.95214e-07C14.112 2.95214e-07 14.9035 0.372453 15.4112 1.00713L18.3232 4.64544C18.5463 4.92455 18.6667 5.26412 18.6667 5.61346C18.6667 5.96191 18.5379 6.29792 18.3017 6.56459L10.3628 15.5443C10.2364 15.6871 10.0787 15.8018 9.90094 15.8805C9.72312 15.9592 9.52941 16 9.33333 16C9.13726 16 8.94354 15.9592 8.76573 15.8805C8.58792 15.8018 8.43029 15.6871 8.30387 15.5443L0.364 6.56459C0.1288 6.29792 0 5.96191 0 5.61346C0 5.26412 0.1204 4.92455 0.343467 4.64544L3.25547 1.00713C3.50665 0.69383 3.83035 0.439956 4.20138 0.265273C4.57242 0.0905907 4.98077 -0.00018893 5.39467 2.95214e-07H13.272ZM12.9052 3.97342C12.8 3.87964 12.6601 3.82941 12.5161 3.83374C12.3721 3.83808 12.2358 3.89662 12.1371 3.99653L9.3352 6.83393L6.52867 3.99653L6.43253 3.9192C6.3212 3.84988 6.18705 3.8218 6.05546 3.84027C5.92386 3.85874 5.80393 3.92248 5.71832 4.01944C5.63271 4.1164 5.58736 4.23987 5.59084 4.36652C5.59432 4.49316 5.64639 4.6142 5.7372 4.70677L8.94133 7.94684L9.04213 8.02684C9.2568 8.16018 9.54987 8.13351 9.73373 7.94684L12.9295 4.70588L13.0041 4.60988C13.0654 4.50869 13.0889 4.39078 13.0709 4.27526C13.053 4.15973 12.9946 4.05338 12.9052 3.97342Z" fill="white"/>
</svg>
