<?xml version="1.0" standalone="no"?><!DOCTYPE svg PUBLIC "-//W3C//DTD SVG 1.1//EN" "http://www.w3.org/Graphics/SVG/1.1/DTD/svg11.dtd"><svg class="icon" width="200px" height="200.00px" viewBox="0 0 1024 1024" version="1.1" xmlns="http://www.w3.org/2000/svg"><path d="M699.477333 86.229333l2.816 0.768c46.933333 12.586667 84.096 22.528 113.322667 33.109334 29.909333 10.794667 54.314667 23.125333 74.410667 41.941333a202.666667 202.666667 0 0 1 58.794666 101.930667c6.272 26.794667 4.778667 54.101333-0.853333 85.376-5.418667 30.634667-15.36 67.797333-27.946667 114.688l-22.869333 85.290666c-12.544 46.890667-22.528 84.053333-33.066667 113.28-10.837333 29.909333-23.168 54.314667-41.984 74.410667a202.666667 202.666667 0 0 1-98.218666 57.941333 202.666667 202.666667 0 0 1-47.189334 66.858667c-20.096 18.816-44.501333 31.146667-74.410666 41.984-29.226667 10.581333-66.389333 20.522667-113.28 33.109333l-2.858667 0.768c-46.933333 12.544-84.053333 22.485333-114.688 27.989334-31.274667 5.589333-58.581333 7.082667-85.418667 0.853333a202.666667 202.666667 0 0 1-101.888-58.88c-18.773333-20.053333-31.146667-44.458667-41.984-74.368-10.538667-29.226667-20.48-66.389333-33.066666-113.322667l-22.869334-85.248c-12.544-46.933333-22.528-84.053333-27.989333-114.688-5.589333-31.274667-7.082667-58.581333-0.853333-85.418666a202.666667 202.666667 0 0 1 58.88-101.888c20.053333-18.773333 44.458667-31.146667 74.368-41.984 29.226667-10.538667 66.389333-20.48 113.28-33.066667l1.450666-0.426667 32.042667-8.533333c16.725333-59.690667 31.402667-101.888 60.074667-132.48a202.666667 202.666667 0 0 1 101.888-58.837333c26.837333-6.229333 54.101333-4.736 85.418666 0.853333 30.592 5.461333 67.754667 15.445333 114.688 27.989333zM318.08 320.128c-46.634667 12.501333-80.042667 21.546667-105.728 30.805333-26.026667 9.386667-41.258667 18.090667-52.352 28.501334a138.666667 138.666667 0 0 0-40.277333 69.717333c-3.413333 14.848-3.370667 32.426667 1.536 59.605333 4.906667 27.605333 14.165333 62.165333 27.178666 110.805334l22.101334 82.432c13.013333 48.64 22.314667 83.2 31.829333 109.525333 9.386667 26.026667 18.090667 41.301333 28.501333 52.394667a138.666667 138.666667 0 0 0 69.717334 40.277333c14.805333 3.413333 32.426667 3.328 59.605333-1.536 27.605333-4.906667 62.165333-14.165333 110.805333-27.178667 48.64-13.056 83.2-22.314667 109.568-31.872 25.984-9.386667 41.258667-18.090667 52.352-28.458666 5.888-5.546667 11.221333-11.52 16.042667-17.877334a429.952 429.952 0 0 1-23.637333-4.053333c-28.672-5.717333-63.146667-14.933333-105.6-26.325333l-2.474667-0.64c-46.890667-12.586667-84.053333-22.528-113.28-33.109334-29.909333-10.794667-54.314667-23.125333-74.410667-41.941333a202.666667 202.666667 0 0 1-58.837333-101.930667c-6.229333-26.794667-4.736-54.101333 0.853333-85.418666 5.461333-30.592 15.445333-67.754667 27.989334-114.645334l18.517333-69.12z m255.445333-198.869333c-27.221333-4.906667-44.8-4.992-59.605333-1.536a138.666667 138.666667 0 0 0-69.717333 40.277333c-18.602667 19.84-30.08 50.56-49.962667 123.434667-3.242667 11.861333-6.656 24.618667-10.368 38.485333l-22.101333 82.432c-13.013333 48.64-22.272 83.2-27.178667 110.805333-4.906667 27.178667-4.992 44.8-1.536 59.605334a138.666667 138.666667 0 0 0 40.277333 69.717333c11.093333 10.410667 26.368 19.072 52.352 28.501333 26.368 9.514667 60.928 18.773333 109.568 31.829334 43.733333 11.733333 76.16 20.394667 102.528 25.6 26.24 5.248 44.074667 6.528 58.666667 4.736 3.2-0.426667 6.229333-0.938667 9.216-1.621334a138.666667 138.666667 0 0 0 69.717333-40.277333c10.410667-11.093333 19.114667-26.368 28.501334-52.352 9.514667-26.368 18.773333-60.928 31.829333-109.568l22.101333-82.432c13.013333-48.64 22.272-83.2 27.178667-110.805333 4.864-27.178667 4.992-44.8 1.536-59.605334a138.666667 138.666667 0 0 0-40.277333-69.717333c-11.093333-10.410667-26.368-19.072-52.352-28.501333-26.410667-9.514667-60.928-18.773333-109.568-31.829334-48.64-13.013333-83.2-22.272-110.805334-27.178666z" fill="#000000" /></svg>