<?xml version="1.0" standalone="no"?><!DOCTYPE svg PUBLIC "-//W3C//DTD SVG 1.1//EN" "http://www.w3.org/Graphics/SVG/1.1/DTD/svg11.dtd"><svg t="1680354214574" class="icon" viewBox="0 0 1024 1024" version="1.1" xmlns="http://www.w3.org/2000/svg" p-id="4574" xmlns:xlink="http://www.w3.org/1999/xlink" width="200" height="200"><path d="M64 189.714286h566.857143c5.028571 0 9.142857-4.114286 9.142857-9.142857v-64c0-5.028571-4.114286-9.142857-9.142857-9.142858H64c-5.028571 0-9.142857 4.114286-9.142857 9.142858v64c0 5.028571 4.114286 9.142857 9.142857 9.142857z m0 484.571428h566.857143c5.028571 0 9.142857-4.114286 9.142857-9.142857v-64c0-5.028571-4.114286-9.142857-9.142857-9.142857H64c-5.028571 0-9.142857 4.114286-9.142857 9.142857v64c0 5.028571 4.114286 9.142857 9.142857 9.142857z m896 160H64c-5.028571 0-9.142857 4.114286-9.142857 9.142857v64c0 5.028571 4.114286 9.142857 9.142857 9.142858h896c5.028571 0 9.142857-4.114286 9.142857-9.142858v-64c0-5.028571-4.114286-9.142857-9.142857-9.142857z m0-484.571428H64c-5.028571 0-9.142857 4.114286-9.142857 9.142857v64c0 5.028571 4.114286 9.142857 9.142857 9.142857h896c5.028571 0 9.142857-4.114286 9.142857-9.142857v-64c0-5.028571-4.114286-9.142857-9.142857-9.142857z" p-id="4575"></path></svg>