<?xml version="1.0" standalone="no"?><!DOCTYPE svg PUBLIC "-//W3C//DTD SVG 1.1//EN" "http://www.w3.org/Graphics/SVG/1.1/DTD/svg11.dtd"><svg class="icon" width="200px" height="200.00px" viewBox="0 0 1024 1024" version="1.1" xmlns="http://www.w3.org/2000/svg"><path d="M360.296 1009.588H56.89c-23.423 0-42.477-19.054-42.477-42.477V564.43c0-38.836 29.977-70.512 66.75-70.512h254.862c36.773 0 66.75 31.676 66.75 70.512V967.11c0 23.423-19.055 42.477-42.478 42.477z m-260.93-84.954h218.453V578.871H99.366v345.763zM663.704 1009.588H360.296c-23.423 0-42.477-19.054-42.477-42.477V81.161c0-36.772 29.977-66.75 66.75-66.75H639.43c36.773 0 66.75 29.978 66.75 66.75v885.95c0 23.423-19.054 42.477-42.477 42.477z m-260.93-84.954h218.453V99.366H402.773v825.268zM967.111 1009.588H663.704c-23.423 0-42.477-19.054-42.477-42.477V443.915c0-36.773 29.976-66.75 66.75-66.75h254.862c36.772 0 66.75 29.977 66.75 66.75v523.196c0 23.423-19.055 42.477-42.478 42.477z m-260.93-84.954h218.453V462.12H706.181v462.514z" /></svg>