<?xml version="1.0" standalone="no"?><!DOCTYPE svg PUBLIC "-//W3C//DTD SVG 1.1//EN" "http://www.w3.org/Graphics/SVG/1.1/DTD/svg11.dtd"><svg class="icon" width="200px" height="200.00px" viewBox="0 0 1024 1024" version="1.1" xmlns="http://www.w3.org/2000/svg"><path d="M597.333333 981.333333H213.333333a128 128 0 0 1-128-128V341.333333a128 128 0 0 1 128-128h384a128 128 0 0 1 128 128v512a128 128 0 0 1-128 128zM213.333333 298.666667a42.666667 42.666667 0 0 0-42.666666 42.666666v512a42.666667 42.666667 0 0 0 42.666666 42.666667h384a42.666667 42.666667 0 0 0 42.666667-42.666667V341.333333a42.666667 42.666667 0 0 0-42.666667-42.666666z" fill="#8e83ff" /><path d="M810.666667 768h-128a42.666667 42.666667 0 0 1 0-85.333333h128a42.666667 42.666667 0 0 0 42.666666-42.666667V128a42.666667 42.666667 0 0 0-42.666666-42.666667h-384a42.666667 42.666667 0 0 0-42.666667 42.666667v128a42.666667 42.666667 0 0 1-85.333333 0V128a128 128 0 0 1 128-128h384a128 128 0 0 1 128 128v512a128 128 0 0 1-128 128z" fill="#8e83ff" /></svg>