<svg width="17" height="17" viewBox="0 0 17 17" fill="none" xmlns="http://www.w3.org/2000/svg">
<path d="M8.94118 7.72578C8.94118 10.6819 8.05088 13.4406 6.51206 15.7705M3.47676 14.0558L3.52441 13.9802C4.76193 12.1074 5.41638 9.93868 5.41176 7.72578C5.41176 6.83409 5.78361 5.97892 6.44551 5.34839C7.1074 4.71787 8.00512 4.36365 8.94118 4.36365C9.87723 4.36365 10.775 4.71787 11.4368 5.34839C12.0987 5.97892 12.4706 6.83409 12.4706 7.72578C12.4706 8.58061 12.4088 9.42282 12.2915 10.2474M10.4226 16C10.9673 14.9649 11.408 13.8831 11.7391 12.769M15.1265 13.7205C15.6956 11.8158 16 9.80442 16 7.72578C16.0003 6.5453 15.6743 5.38555 15.0549 4.36312C14.4355 3.34069 13.5444 2.49162 12.4713 1.90126C11.3982 1.3109 10.1808 1.00007 8.94157 1C7.70236 0.999934 6.48496 1.31064 5.41176 1.90088M1 11.3939C1.56471 10.2852 1.88235 9.04038 1.88235 7.72578C1.88235 6.50112 2.22647 5.35296 2.82647 4.36365" stroke="#76C6FF" stroke-width="1.6" stroke-linecap="round" stroke-linejoin="round"/>
</svg>
