<?xml version="1.0" standalone="no"?><!DOCTYPE svg PUBLIC "-//W3C//DTD SVG 1.1//EN" "http://www.w3.org/Graphics/SVG/1.1/DTD/svg11.dtd"><svg class="icon" width="200px" height="200.00px" viewBox="0 0 1024 1024" version="1.1" xmlns="http://www.w3.org/2000/svg"><path d="M512 760.68080197c-6.08432987 0-12.16865975-1.29453827-17.86462815-4.01306864l-455.6774716-217.61188346c-14.49882864-6.99050667-23.69005037-21.61878914-23.56059655-37.80051752 0.12945383-16.05227457 9.5795832-30.68055703 24.3373195-37.28270222l113.91936791-51.78153088c20.84206617-9.45012939 45.43829333-0.25890765 54.88842272 20.58315853 9.45012939 20.84206617 0.25890765 45.43829333-20.58315852 54.88842272l-33.01072592 15.01664395L512 673.29946864l357.55147061-170.74959803-27.31475752-12.42756741c-20.84206617-9.45012939-30.0332879-34.04635653-20.58315852-54.8884227 9.45012939-20.84206617 34.04635653-30.0332879 54.88842271-20.58315853l108.35285333 49.19245433c14.62828247 6.60214518 24.07841185 21.23042765 24.33731952 37.28270222 0.12945383 16.05227457-9.0617679 30.81001086-23.56059655 37.80051753l-455.67747161 217.61188345c-5.82542222 2.71853037-11.9097521 4.14252247-17.99408197 4.14252247z" fill="#8e83ff" /><path d="M512 1009.23215013c-6.08432987 0-12.16865975-1.29453827-17.86462815-4.01306865l-455.6774716-217.61188345c-14.49882864-6.99050667-23.69005037-21.61878914-23.56059655-37.80051753 0.12945383-16.05227457 9.5795832-30.68055703 24.3373195-37.28270223l113.91936791-51.78153086c20.84206617-9.45012939 45.43829333-0.25890765 54.88842272 20.58315851 9.45012939 20.84206617 0.25890765 45.43829333-20.58315852 54.88842272l-33.01072592 15.01664395L512 921.8508168l357.55147061-170.74959804-27.31475752-12.4275674c-20.84206617-9.45012939-30.0332879-34.04635653-20.58315852-54.88842272 9.45012939-20.84206617 34.04635653-30.0332879 54.88842271-20.58315851l108.35285333 49.19245432c14.62828247 6.60214518 24.07841185 21.23042765 24.33731952 37.28270222 0.12945383 16.05227457-9.0617679 30.81001086-23.56059655 37.80051752l-455.67747161 217.61188346c-5.82542222 2.71853037-11.9097521 4.14252247-17.99408197 4.14252248zM512.12945383 515.88361482c-5.82542222 0-11.78029827-1.29453827-17.21735901-3.75416099l-11.13302913-5.04869926c-0.12945383-0.12945383-0.25890765-0.12945383-0.3883615-0.25890766L38.7168079 297.75391605c-14.62828247-6.86105283-23.94895803-21.74824297-23.8195042-37.92997136 0.12945383-16.18172839 9.70903703-30.81001086 24.46677333-37.41215605l455.67747161-203.88977778c10.74466765-4.78979161 23.04278124-4.78979161 33.78744889 0l455.67747161 203.88977778c14.7577363 6.60214518 24.3373195 21.23042765 24.46677333 37.41215605 0.12945383 16.18172839-9.19122173 30.93946469-23.8195042 37.92997136L540.73874963 506.82184691c-0.12945383 0-0.12945383 0.12945383-0.25890766 0.12945384l-11.0035753 5.04869925c-5.56651457 2.58907653-11.3919368 3.88361482-17.34681284 3.88361482z m11.00357531-46.47392396zM155.61361383 261.2479368L512 428.76118914l356.38638617-167.64270617L512 101.76082173 155.61361383 261.2479368z" fill="#8e83ff" /></svg>