<?xml version="1.0" standalone="no"?><!DOCTYPE svg PUBLIC "-//W3C//DTD SVG 1.1//EN" "http://www.w3.org/Graphics/SVG/1.1/DTD/svg11.dtd"><svg class="icon" width="200px" height="200.00px" viewBox="0 0 1024 1024" version="1.1" xmlns="http://www.w3.org/2000/svg"><path d="M979.62666667 252.13155555c-15.24622222-35.38488889-37.09155555-67.01511111-64.73955556-94.208-27.648-27.07911111-59.73333333-48.24177778-95.57333333-63.14666666-36.97777778-15.36-76.11733333-23.09688889-116.50844445-23.09688889-56.09244445 0-110.81955555 15.36-158.37866666 44.37333333-11.37777778 6.94044445-22.18666667 14.56355555-32.42666667 22.86933334-10.24-8.30577778-21.04888889-15.92888889-32.42666667-22.86933334-47.55911111-29.01333333-102.28622222-44.37333333-158.37866666-44.37333333-40.39111111 0-79.53066667 7.73688889-116.50844445 23.09688889-35.72622222 14.79111111-67.92533333 36.06755555-95.57333333 63.14666666-27.76177778 27.19288889-49.49333333 58.82311111-64.73955556 94.208-15.81511111 36.75022222-23.89333333 75.776-23.89333333 115.93955556 0 37.888 7.73688889 77.36888889 23.09688889 117.53244444 12.85688889 33.56444445 31.28888889 68.38044445 54.84088889 103.53777778 37.31911111 55.63733333 88.63288889 113.664 152.34844444 172.48711112 105.58577778 97.50755555 210.14755555 164.864 214.58488889 167.59466666l26.96533334 17.29422222c11.94666667 7.62311111 27.30666667 7.62311111 39.25333333 0l26.96533333-17.29422222c4.43733333-2.84444445 108.88533333-70.08711111 214.58488889-167.59466666 63.71555555-58.82311111 115.02933333-116.84977778 152.34844445-172.48711112 23.552-35.15733333 42.09777778-69.97333333 54.84088888-103.53777778 15.36-40.16355555 23.09688889-79.64444445 23.09688889-117.53244444 0.11377778-40.16355555-7.96444445-79.18933333-23.77955555-115.93955556z" fill="#f74f39" /></svg>