<?xml version="1.0" standalone="no"?><!DOCTYPE svg PUBLIC "-//W3C//DTD SVG 1.1//EN" "http://www.w3.org/Graphics/SVG/1.1/DTD/svg11.dtd"><svg class="icon" width="200px" height="200.00px" viewBox="0 0 1024 1024" version="1.1" xmlns="http://www.w3.org/2000/svg"><path d="M512 997.45185223C243.88494222 997.45185223 26.54814777 780.11505778 26.54814777 512S243.88494222 26.54814777 512 26.54814777s485.45185223 217.33679445 485.45185223 485.45185223-217.33679445 485.45185223-485.45185223 485.45185223z m-52.72007111-506.42337223c11.65084445-40.77795555 52.18607445-74.80812999 96.6049189-80.00246557 9.07795001 33.6903589 18.83553223 66.65253888 26.45712554 100.1487178 2.57289443 11.16539221 1.79617223 24.02986667-0.87381333 35.29234887-10.34012445 43.30230557-60.58439111 60.29312-96.02237667 33.25345223-25.72894777-19.6608-36.02052779-54.37060779-26.16585444-88.69205333z m185.29697223-9.5634011c-6.06814777-22.57351111-12.42756779-45.00138667-19.07825778-68.93416335 24.27259221 6.31087445 44.07902777 17.47626667 60.92420665 33.88453888 61.02129778 59.27367111 67.2350811 160.19911111 14.27228444 229.66727112-55.09878557 72.33232555-153.16005888 103.59542557-244.0851911 77.91502222-111.75101667-31.55436999-184.86006557-143.30538667-167.04398223-258.06620444 13.30138112-85.82788779 61.65238557-145.82973667 140.7810378-181.21917554 19.75788999-8.83522333 28.15620779-27.18530333 20.38897777-45.14702222-7.62159445-17.67044779-26.2144-24.46677333-45.82665557-16.6509989-132.09144889 52.86570667-209.7152 200.68579555-178.16082887 339.18520888 34.61271666 151.36388779 169.66542222 250.63879111 324.03911111 235.88105444 84.08026112-8.00995555 153.59696555-46.02083555 204.66649999-113.93554887 73.10904889-97.18746112 62.96310557-232.19162112-22.47641999-315.4951589-32.33109333-31.55436999-71.40996779-49.4189989-116.02299335-55.97259889-4.02924999-0.63108779-10.53430557-2.52435001-11.2624822-5.14578888-4.22343111-15.19464334-8.73813333-30.68055666-10.00030891-46.31210666-1.40780999-17.33063111 14.07810333-31.0689189 31.55437113-31.31164445 12.28193223-0.14563555 21.06860999 6.31087445 29.27274666 14.56355556 14.70919111 14.56355555 34.17580999 15.63155001 47.96264221 3.0098011 14.07810333-12.81592889 14.36937443-32.91363555 0.87381333-48.93354667-27.47657443-32.62236445-76.99266333-43.25376-117.9648-25.38913223-41.11777223 17.9617189-64.12819001 57.62313443-58.25422222 101.60507335 1.84471666 13.59265223 5.33996999 27.03966777 8.10704668 40.87504555l-12.6217489 3.49525333a187.53004999 187.53004999 0 0 0-101.84779776 68.64289224c-44.71011555 59.22512555-45.43829333 137.28578333-1.99035335 191.60784554 61.84656555 77.38102557 181.89880889 62.33201778 219.56987335-27.57366556 13.78683221-32.81654557 13.34992555-66.40981333 4.22343111-100.24580665z" fill="#f8462f" /></svg>