<?xml version="1.0" standalone="no"?><!DOCTYPE svg PUBLIC "-//W3C//DTD SVG 1.1//EN" "http://www.w3.org/Graphics/SVG/1.1/DTD/svg11.dtd"><svg t="1688190701295" class="icon" viewBox="0 0 1024 1024" version="1.1" xmlns="http://www.w3.org/2000/svg" p-id="2286" xmlns:xlink="http://www.w3.org/1999/xlink" width="200" height="200"><path d="M945.77833 863.490485h-549.182136a51.219883 51.219883 0 0 1-51.239767-51.229825V51.468427A51.219883 51.219883 0 0 1 396.596194 0.238602h561.112233a51.219883 51.219883 0 0 1 51.239767 51.229825v748.862136c-0.119301 34.855767-28.304155 63.159922-63.169864 63.159922z" fill="#E6E6E6" p-id="2287"></path><path d="M694.053282 1017.537864h-487.543301a51.219883 51.219883 0 0 1-51.229826-51.229825V205.525748a51.219883 51.219883 0 0 1 51.229826-51.239767h561.122174a51.219883 51.219883 0 0 1 51.229826 51.239767v687.322718c-0.109359 68.896311-55.912388 124.69934-124.808699 124.69934z" fill="#CDCDCD" p-id="2288"></path><path d="M581.293981 893.55433v-84.335845H14.912621v70.646059c0 76.034485 61.638835 137.683262 137.673321 137.683262h552.701514c-68.54835 0-123.993476-55.564427-123.993475-123.993476z" fill="#BFBFBF" p-id="2289"></path><path d="M694.987806 368.818951H272.483417c-19.883495 0-36.028893-16.145398-36.028893-36.028893s16.145398-36.028893 36.028893-36.028893h422.504389c19.883495 0 36.028893 16.145398 36.028893 36.028893a35.969243 35.969243 0 0 1-36.028893 36.028893z m-11.333592 180.134525H261.129942c-19.883495 0-36.028893-16.145398-36.028893-36.028893s16.145398-36.028893 36.028893-36.028894h422.504388c19.883495 0 36.028893 16.145398 36.028893 36.028894s-16.145398 36.028893-36.028893 36.028893zM425.12901 743.125748H261.139883c-19.883495 0-36.028893-16.135456-36.028893-36.028894 0-19.883495 16.145398-36.028893 36.028893-36.028893h163.999068c19.883495 0 36.028893 16.145398 36.028894 36.028893-0.119301 19.883495-16.145398 36.028893-36.028894 36.028894z" fill="#F7F9F9" p-id="2290"></path></svg>