<?xml version="1.0" standalone="no"?><!DOCTYPE svg PUBLIC "-//W3C//DTD SVG 1.1//EN" "http://www.w3.org/Graphics/SVG/1.1/DTD/svg11.dtd"><svg t="1684607682239" class="icon" viewBox="0 0 1024 1024" version="1.1" xmlns="http://www.w3.org/2000/svg" p-id="12108" xmlns:xlink="http://www.w3.org/1999/xlink" width="200" height="200"><path d="M472.874667 170.666667c3.925333 0 7.125333 3.2 7.125333 7.125333v295.082667a7.125333 7.125333 0 0 1-7.125333 7.125333H177.792A7.125333 7.125333 0 0 1 170.666667 472.874667V199.125333c0-15.786667 12.714667-28.458667 28.458666-28.458666h273.749334zM423.125333 423.125333V227.541333H227.541333v195.584h195.584zM300.458667 357.333333a7.125333 7.125333 0 0 1-7.125334-7.125333V300.458667c0-3.925333 3.2-7.125333 7.125334-7.125334h49.749333c3.925333 0 7.125333 3.2 7.125333 7.125334v49.749333a7.125333 7.125333 0 0 1-7.125333 7.125333H300.458667z m172.416 186.666667c3.925333 0 7.125333 3.2 7.125333 7.125333v295.082667a7.125333 7.125333 0 0 1-7.125333 7.125333H199.125333A28.416 28.416 0 0 1 170.666667 824.874667v-273.749334c0-3.925333 3.2-7.125333 7.125333-7.125333h295.082667z m-49.749334 252.458667v-195.584H227.541333v195.584h195.584z m-122.666666-65.792a7.125333 7.125333 0 0 1-7.125334-7.125334v-49.749333c0-3.925333 3.2-7.125333 7.125334-7.125333h49.749333c3.925333 0 7.125333 3.2 7.125333 7.125333v49.749333a7.125333 7.125333 0 0 1-7.125333 7.125334H300.458667zM824.874667 170.666667c15.786667 0 28.458667 12.714667 28.458666 28.458666v273.749334a7.125333 7.125333 0 0 1-7.125333 7.125333h-295.082667a7.125333 7.125333 0 0 1-7.125333-7.125333V177.792c0-3.925333 3.2-7.125333 7.125333-7.125333h273.749334z m-28.416 252.458666V227.541333h-195.584v195.584h195.584z m-122.666667-65.792a7.125333 7.125333 0 0 1-7.125333-7.125333V300.458667c0-3.925333 3.2-7.125333 7.125333-7.125334h49.749333c3.925333 0 7.125333 3.2 7.125334 7.125334v49.749333a7.125333 7.125333 0 0 1-7.125334 7.125333h-49.749333z" fill="#0065FF" p-id="12109"></path><path d="M846.208 544c3.925333 0 7.125333 3.2 7.125333 7.125333v168.874667a7.125333 7.125333 0 0 1-7.125333 7.125333h-168.874667a7.125333 7.125333 0 0 1-7.125333-7.125333V629.333333h-69.333333v216.874667a7.125333 7.125333 0 0 1-7.082667 7.125333h-42.666667a7.125333 7.125333 0 0 1-7.125333-7.125333v-295.082667c0-3.925333 3.2-7.125333 7.125333-7.125333h168.874667c3.925333 0 7.125333 3.2 7.125333 7.125333v119.082667h69.333334v-119.082667c0-3.925333 3.2-7.125333 7.082666-7.125333h42.666667z m-126.208 252.458667c3.925333 0 7.125333 3.2 7.125333 7.082666v42.666667a7.125333 7.125333 0 0 1-7.125333 7.125333h-42.666667a7.125333 7.125333 0 0 1-7.125333-7.125333v-42.666667c0-3.882667 3.2-7.082667 7.125333-7.082666h42.666667z m126.208 0c3.925333 0 7.125333 3.2 7.125333 7.082666v42.666667a7.125333 7.125333 0 0 1-7.125333 7.125333h-42.666667a7.125333 7.125333 0 0 1-7.082666-7.125333v-42.666667c0-3.882667 3.2-7.082667 7.082666-7.082666h42.666667z" fill="#B3D4FF" p-id="12110"></path></svg>