<?xml version="1.0" standalone="no"?><!DOCTYPE svg PUBLIC "-//W3C//DTD SVG 1.1//EN" "http://www.w3.org/Graphics/SVG/1.1/DTD/svg11.dtd"><svg class="icon" width="200px" height="200.00px" viewBox="0 0 1024 1024" version="1.1" xmlns="http://www.w3.org/2000/svg"><path d="M189.96337778 125.3376a87.19928889 87.19928889 0 1 0 86.28906667 87.19928889 86.8352 86.8352 0 0 0-86.28906667-87.19928889zM290.99804445 538.76053333C279.3472 450.83306667 111.50222222 339.60391111 111.50222222 339.60391111l-65.536 93.57084444s140.9024 70.4512 152.55324445 127.43111112S5.18826667 786.52302222 5.18826667 786.52302222l145.63555555 107.40622223s151.64302222-267.42328889 140.17422223-355.16871112z" fill="#FC8848" /><path d="M1018.81173333 362.9056c0-76.09457778-75.54844445-173.30631111-198.79253333-195.15164445s-299.28106667 68.26666667-326.40568889 72.81777778-34.77048889-4.00497778-34.77048889-4.00497778l30.94755556-60.43875555L384.56888889 132.61937778A473.31555555 473.31555555 0 0 1 333.4144 257.13777778a483.87413333 483.87413333 0 0 1-85.01475555 105.40373333L314.11768889 420.97777778l86.8352-103.40124445 57.89013333 5.82542222L352.71111111 457.38666667s3.82293333 44.96497778 36.40888889 46.96746666 83.01226667-76.27662222 83.01226667-76.27662222l59.71057778 11.83288889 2.00248888 78.09706667H339.23982222v52.61084444l192.96711111 5.82542222v166.02453334s-55.7056 8.37404445-80.2816-26.39644445-14.7456-89.56586667-14.7456-89.56586667L311.75111111 622.68302222s-7.82791111 96.30151111 25.66826667 144.36124445 102.67306667 64.98986667 172.94222222 58.9824 245.57795555-80.46364445 245.57795555-80.46364445l11.4688 52.79288889 92.66062223-42.96248889-55.88764445-148.36622222-75.3664 15.65582222 7.82791112 64.44373333-92.84266667 40.96v-148.36622222L839.68 571.89262222v-54.61333333H640.34133333V439.18222222h191.14666667v-62.44124444H518.73564445l46.42133333-91.02222223A640.43235555 640.43235555 0 0 1 702.23644445 238.93333333c54.61333333-7.82791111 79.00728889-11.65084445 129.25155555 19.47875556a123.42613333 123.42613333 0 0 1 57.89013333 76.27662222v434.35804444a109.22666667 109.22666667 0 0 1-69.35893333 60.43875556c-54.61333333 18.20444445-141.08444445-1.82044445-141.08444445-1.82044444l-7.64586666 60.43875555s145.63555555 29.30915555 239.38844444-9.64835555 108.1344-150.36871111 108.1344-150.36871112z" fill="#FC8848" /></svg>