<?xml version="1.0" standalone="no"?><!DOCTYPE svg PUBLIC "-//W3C//DTD SVG 1.1//EN" "http://www.w3.org/Graphics/SVG/1.1/DTD/svg11.dtd"><svg class="icon" width="200px" height="200.00px" viewBox="0 0 1024 1024" version="1.1" xmlns="http://www.w3.org/2000/svg"><path d="M981.67466667 313.57155555a511.25361778 511.25361778 0 1 0-942.40768 396.8568889 511.25361778 511.25361778 0 0 0 942.40768-396.8568889z m-510.59825778 619.6792889A419.57603555 419.57603555 0 0 1 212.71893333 811.28106667a423.21692445 423.21692445 0 0 1 0-598.41649778 420.01294222 420.01294222 0 0 1 258.21184-122.04259556v842.50168889z m340.13184-720.45909334c11.50520889 11.43239111 22.28224 23.52014222 32.33109333 36.19043556l-290.54293333 290.54293333V449.52234667l247.28917333-247.28917334c3.71370667 3.42243555 7.35459555 6.99050667 10.92266667 10.63139556z m68.8128 89.85713778c11.21393778 19.6608 20.82588445 40.19541333 28.69020444 61.45820444l-355.78766222 355.64202667V629.67352889l327.09745778-327.02464z m48.13255111 132.01863111c4.73315555 25.48622222 7.06332445 51.40935111 7.13614222 77.33248l-0.07281777 5.82542222-382.29333334 382.14769778v-90.07559111l375.23000889-375.23000889z m-177.89383111-272.62976l-197.33617778 197.33617778V269.22552889l140.10140444-140.02858667c19.95207111 9.46631111 39.03032889 20.38897778 57.23477334 32.84081778z m-122.77077334-57.38040889L552.92359111 179.22275555V90.67633778c25.26776889 2.47580445 50.24426667 7.13614222 74.56540444 13.98101333z m183.71925334 706.55089778a420.59548445 420.59548445 0 0 1-188.96213334 109.51793778l298.5528889-298.48007112a420.66830222 420.66830222 0 0 1-109.59075556 188.96213334z" fill="#000000" /></svg>