<?xml version="1.0" standalone="no"?><!DOCTYPE svg PUBLIC "-//W3C//DTD SVG 1.1//EN" "http://www.w3.org/Graphics/SVG/1.1/DTD/svg11.dtd"><svg class="icon" width="200px" height="200.00px" viewBox="0 0 1024 1024" version="1.1" xmlns="http://www.w3.org/2000/svg"><path d="M542.83491555 805.36917333l-86.6042311 55.10257778-109.33361778-171.87612444c-22.57578667 71.93144889-60.13155555 136.73130667-109.74435556 196.24618666-20.62563555 24.7808-42.07160889 47.09944889-66.75000889 70.54677334-7.95306667 7.54232889-39.76192 36.78663111-45.04689777 42.07047111l-72.54698667-72.54698667c7.13159111-7.13159111 40.37859555-37.70936889 46.94471111-43.91822222 22.06264889-20.93283555 40.78933333-40.53105778 58.59214222-61.87463111 64.95459555-77.88316445 104.15217778-164.69333333 109.64195556-268.38357333H63.42997333V448.12515555h205.22439112V242.89848889h-44.53262223c-35.35075555 64.95459555-79.93571555 114.00305778-134.32035555 146.58218666l-52.74282667-87.93884444c71.57191111-42.99434667 124.41713778-133.60128 155.86759111-275.00088889l100.15061334 22.26631111c-7.18279111 32.47672889-15.54659555 62.95324445-25.08913778 91.47960889h231.54460444v102.61162667H371.26826667V448.12515555h128.26510222v102.61162667h-118.77262222l162.07644444 254.63352889z m196.91292445-3.59196444l57.25866667-45.81603556h87.32330666V242.89848889H679.10428445V755.96231111h37.76170666l22.88184889 45.81603556zM576.49152 140.288H986.94257778v718.28707555H833.024l-128.26510222 102.61162667-51.30695111-102.61162667h-76.95928889V140.28686222z" fill="#0E87EA" /></svg>