<svg width="18" height="18" viewBox="0 0 18 18" fill="none" xmlns="http://www.w3.org/2000/svg">
<path d="M9.47059 8.17417C9.47059 11.3274 8.52094 14.2699 6.87953 16.7552M3.64188 14.9262L3.69271 14.8455C5.01272 12.8479 5.7108 10.5346 5.70588 8.17417C5.70588 7.22303 6.10252 6.31084 6.80854 5.63829C7.51456 4.96573 8.47213 4.58789 9.47059 4.58789C10.4691 4.58789 11.4266 4.96573 12.1326 5.63829C12.8387 6.31084 13.2353 7.22303 13.2353 8.17417C13.2353 9.08598 13.1694 9.98434 13.0442 10.8639M11.0508 17C11.6317 15.8959 12.1019 14.7419 12.4551 13.5536M16.0682 14.5685C16.6753 12.5369 17 10.3914 17 8.17417C17.0003 6.91498 16.6526 5.67792 15.9919 4.58733C15.3312 3.49673 14.3807 2.59106 13.236 1.96134C12.0914 1.33163 10.7928 1.00007 9.47101 1C8.14918 0.999929 6.85062 1.33135 5.70588 1.96094M1 12.0868C1.60235 10.9042 1.94118 9.5764 1.94118 8.17417C1.94118 6.86787 2.30824 5.64315 2.94824 4.58789" stroke="white" stroke-width="2" stroke-linecap="round" stroke-linejoin="round"/>
</svg>
