<svg width="200" height="200" viewBox="0 0 200 200" fill="none" xmlns="http://www.w3.org/2000/svg">
<path opacity="0.1" d="M0 100C0 126.522 10.5357 151.957 29.2893 170.711C48.043 189.464 73.4784 200 100 200C126.522 200 151.957 189.464 170.711 170.711C189.464 151.957 200 126.522 200 100C200 73.4784 189.464 48.043 170.711 29.2893C151.957 10.5357 126.522 0 100 0C73.4784 0 48.043 10.5357 29.2893 29.2893C10.5357 48.043 0 73.4784 0 100Z" fill="#1A71FF"/>
<path d="M78.041 151.411L69.959 138.366L54.6311 135.172C53.2377 134.905 52.1229 134.217 51.2869 133.106C50.4508 131.995 50.1257 130.776 50.3115 129.449L51.8443 114.408L41.3934 102.961C40.4645 101.985 40 100.831 40 99.5C40 98.169 40.4645 97.0155 41.3934 96.0394L51.8443 84.5924L50.3115 69.5516C50.1257 68.2206 50.4508 66.9996 51.2869 65.8887C52.1229 64.7777 53.2377 64.0909 54.6311 63.8282L69.959 60.6337L78.041 47.5895C78.7841 46.4359 79.806 45.6586 81.1066 45.2575C82.4071 44.8564 83.7076 44.9239 85.0082 45.4598L99.5 51.3164L113.992 45.4598C115.293 44.9274 116.593 44.86 117.893 45.2575C119.194 45.6551 120.216 46.4324 120.959 47.5895L129.041 60.6337L144.369 63.8282C145.762 64.0944 146.877 64.783 147.713 65.894C148.549 67.0049 148.875 68.2241 148.688 69.5516L147.156 84.5924L157.606 96.0394C158.535 97.0155 159 98.169 159 99.5C159 100.831 158.535 101.985 157.606 102.961L147.156 114.408L148.688 129.449C148.875 130.78 148.549 132.001 147.713 133.111C146.877 134.222 145.762 134.91 144.369 135.172L129.041 138.366L120.959 151.411C120.216 152.564 119.194 153.341 117.893 153.742C116.593 154.144 115.293 154.076 113.992 153.54L99.5 147.684L85.0082 153.54C83.7076 154.073 82.4071 154.14 81.1066 153.742C79.806 153.345 78.7841 152.568 78.041 151.411ZM93.6475 103.227L85.5656 95.6401C84.5437 94.6639 83.2655 94.1759 81.7309 94.1759C80.1962 94.1759 78.8733 94.7083 77.7623 95.7732C76.7404 96.7492 76.2295 97.9915 76.2295 99.5C76.2295 101.009 76.7404 102.251 77.7623 103.227L89.7459 114.674C90.8607 115.739 92.1612 116.271 93.6475 116.271C95.1339 116.271 96.4344 115.739 97.5492 114.674L121.238 92.0462C122.352 90.9814 122.886 89.7391 122.837 88.3193C122.789 86.8995 122.256 85.6572 121.238 84.5924C120.123 83.5276 118.798 82.9739 117.264 82.9313C115.729 82.8887 114.406 83.398 113.295 84.4593L93.6475 103.227Z" fill="#1A71FF"/>
</svg>
