<?xml version="1.0" standalone="no"?><!DOCTYPE svg PUBLIC "-//W3C//DTD SVG 1.1//EN" "http://www.w3.org/Graphics/SVG/1.1/DTD/svg11.dtd"><svg class="icon" width="200px" height="200.00px" viewBox="0 0 1024 1024" version="1.1" xmlns="http://www.w3.org/2000/svg"><path d="M834.23646698 50.41943347a64.72691317 64.72691317 0 0 1 0 91.54974698L775.05017719 201.10368829h60.58439112A194.18074075 194.18074075 0 0 1 1029.81530905 395.33621097v388.36148148a194.18074075 194.18074075 0 0 1-194.18074074 194.18074073H188.36543169A194.18074075 194.18074075 0 0 1-5.81530905 783.69769245v-388.36148148a194.18074075 194.18074075 0 0 1 194.18074074-194.18074075h60.3772658L189.65997037 142.02096238a64.72691317 64.72691317 0 1 1 91.49796504-91.54974697l137.32461984 137.32461984c4.09074134 4.09074134 7.50832238 8.54395259 10.25274312 13.30785304h166.37405866c2.74442073-4.76390044 6.2137837-9.32067555 10.30452505-13.35963497l137.27283792-137.32461985a64.72691317 64.72691317 0 0 1 91.54974698 0z m1.39810133 280.65589809H188.36543169a64.72691317 64.72691317 0 0 0-64.57156858 59.91123081l-0.15534459 4.86746431v388.36148148c0 34.12402844 26.40858075 62.0860551 59.9112308 64.51978665l4.81568237 0.20712652h647.26913662a64.72691317 64.72691317 0 0 0 64.57156858-59.9112308l0.15534459-4.81568237v-388.36148148c0-35.7292563-28.99765689-64.72691317-64.72691317-64.72691439z m-517.81530906 129.45382636c35.7292563 0 64.72691317 28.99765689 64.72691319 64.72691439v64.72691317a64.72691317 64.72691317 0 1 1-129.45382636 0v-64.72691317c0-35.7292563 28.99765689-64.72691317 64.72691317-64.72691439z m388.3614815 0c35.7292563 0 64.72691317 28.99765689 64.72691317 64.72691439v64.72691317a64.72691317 64.72691317 0 1 1-129.45382636 0v-64.72691317c0-35.7292563 28.99765689-64.72691317 64.72691319-64.72691439z" fill="#1296db" /></svg>