<?xml version="1.0" standalone="no"?><!DOCTYPE svg PUBLIC "-//W3C//DTD SVG 1.1//EN" "http://www.w3.org/Graphics/SVG/1.1/DTD/svg11.dtd"><svg class="icon" width="200px" height="200.00px" viewBox="0 0 1024 1024" version="1.1" xmlns="http://www.w3.org/2000/svg"><path d="M256 949.333a53.333 53.333 0 1 1 0-106.666h512a53.333 53.333 0 1 1 0 106.666H256z m293.717-186.282a53.333 53.333 0 0 1-75.434 0l-256-256a53.333 53.333 0 0 1 75.434-75.435l165.12 165.12V128a53.333 53.333 0 1 1 106.667 0v468.395l164.779-164.779a53.333 53.333 0 0 1 75.434 75.435l-256 256z" /></svg>