<?xml version="1.0" standalone="no"?><!DOCTYPE svg PUBLIC "-//W3C//DTD SVG 1.1//EN" "http://www.w3.org/Graphics/SVG/1.1/DTD/svg11.dtd"><svg class="icon" width="200px" height="200.00px" viewBox="0 0 1024 1024" version="1.1" xmlns="http://www.w3.org/2000/svg"><path d="M512 42.666667C252.8 42.666667 42.666667 252.789333 42.666667 512s210.133333 469.333333 469.333333 469.333333 469.333333-210.122667 469.333333-469.333333S771.2 42.666667 512 42.666667z m0 853.333333c-212.074667 0-384-171.925333-384-384s171.925333-384 384-384 384 171.925333 384 384-171.925333 384-384 384z m170.666667-426.666667H554.666667V341.333333a42.666667 42.666667 0 0 0-85.333334 0v128H341.333333a42.666667 42.666667 0 0 0 0 85.333334h128v128a42.666667 42.666667 0 0 0 85.333334 0V554.666667h128a42.666667 42.666667 0 0 0 0-85.333334z" /></svg>