<?xml version="1.0" standalone="no"?><!DOCTYPE svg PUBLIC "-//W3C//DTD SVG 1.1//EN" "http://www.w3.org/Graphics/SVG/1.1/DTD/svg11.dtd"><svg t="1680448631447" class="icon" viewBox="0 0 1024 1024" version="1.1" xmlns="http://www.w3.org/2000/svg" p-id="2761" xmlns:xlink="http://www.w3.org/1999/xlink" width="200" height="200"><path d="M512 42.666667C253.155556 42.666667 42.666667 253.155556 42.666667 512S253.155556 981.333333 512 981.333333 981.333333 770.844444 981.333333 512 770.844444 42.666667 512 42.666667z m0 881.777777C284.444444 924.444444 99.555556 739.555556 99.555556 512S284.444444 99.555556 512 99.555556 924.444444 284.444444 924.444444 512 739.555556 924.444444 512 924.444444z" fill="#ffffff" p-id="2762"></path><path d="M551.822222 512l145.066667-145.066667c11.377778-11.377778 11.377778-28.444444 0-39.822222s-28.444444-11.377778-39.822222 0L512 472.177778l-145.066667-145.066667c-11.377778-11.377778-28.444444-11.377778-39.822222 0s-11.377778 28.444444 0 39.822222l145.066667 145.066667-147.911111 147.911111c-11.377778 11.377778-11.377778 28.444444 0 39.822222 5.688889 5.688889 14.222222 8.533333 19.911111 8.533334s14.222222-2.844444 19.911111-8.533334l147.911111-147.911111 147.911111 147.911111c5.688889 5.688889 14.222222 8.533333 19.911111 8.533334s14.222222-2.844444 19.911111-8.533334c11.377778-11.377778 11.377778-28.444444 0-39.822222L551.822222 512z" fill="#ffffff" p-id="2763"></path></svg>