<?xml version="1.0" standalone="no"?><!DOCTYPE svg PUBLIC "-//W3C//DTD SVG 1.1//EN" "http://www.w3.org/Graphics/SVG/1.1/DTD/svg11.dtd"><svg class="icon" width="200px" height="200.00px" viewBox="0 0 1024 1024" version="1.1" xmlns="http://www.w3.org/2000/svg"><path d="M463.45481443 220.72888889a97.09036999 97.09036999 0 1 1-97.09036998-97.09036999 97.09036999 97.09036999 0 0 1 97.09036998 97.09036999z m-97.09036998 194.18074112a97.09036999 97.09036999 0 1 0 97.09036998 97.09036999 97.09036999 97.09036999 0 0 0-97.09036998-97.09036999z m0 291.27111111a97.09036999 97.09036999 0 1 0 97.09036998 97.09036999 97.09036999 97.09036999 0 0 0-97.09036998-97.09036999z m291.2711111-388.36148224a97.09036999 97.09036999 0 1 0-97.09036998-97.09036999 97.09036999 97.09036999 0 0 0 97.09036998 97.09036999z m0 97.09037113a97.09036999 97.09036999 0 1 0 97.09037 97.09036999 97.09036999 97.09036999 0 0 0-97.09037-97.09036999z m0 291.27111111a97.09036999 97.09036999 0 1 0 97.09037 97.09036999 97.09036999 97.09036999 0 0 0-97.09037-97.09036999z" /></svg>