<?xml version="1.0" standalone="no"?><!DOCTYPE svg PUBLIC "-//W3C//DTD SVG 1.1//EN" "http://www.w3.org/Graphics/SVG/1.1/DTD/svg11.dtd"><svg class="icon" width="200px" height="199.80px" viewBox="0 0 1025 1024" version="1.1" xmlns="http://www.w3.org/2000/svg"><path d="M512.7121 512m-478.175243 0a478.175243 478.175243 0 1 0 956.350487 0 478.175243 478.175243 0 1 0-956.350487 0Z" fill="#EA4C89" /><path d="M512.7121 0C230.008345 0 0 229.652295 0 512c0 282.347705 230.008345 512 512.7121 512s512.7121-229.652295 512.7121-512C1025.4242 229.652295 795.415855 0 512.7121 0z m337.535466 241.757997c58.392211 72.278164 93.997218 164.139082 95.777469 263.833102-19.582754-3.916551-101.83032-19.226704-200.456189-19.226704-31.688456 0-65.157163 1.78025-98.62587 5.696801-2.848401-6.764951-5.696801-13.885953-8.545201-20.650904-8.545202-20.294854-18.158554-40.589708-27.771906-60.528512 151.32128-63.020862 224.311544-149.541029 239.621697-169.123783zM512.7121 80.111266c109.307371 0 209.001391 40.589708 285.552156 107.527121-12.105702 16.378303-77.618915 98.269819-223.599444 153.45758-67.649513-123.549374-141.707928-226.091794-159.154381-249.947149 30.976356-7.121001 63.732962-11.037552 97.201669-11.037552zM326.497914 122.125174c14.954103 20.650904 89.012517 123.905424 158.442281 246.742698-186.214186 48.77886-351.421419 51.98331-391.655077 51.98331H89.012517c29.196106-132.094576 118.208623-241.757997 237.485397-298.726008zM79.399166 512.7121c0-3.560501 0-7.121001 0.35605-10.681502h11.393602c53.763561 0 240.333797-4.628651 432.600834-61.596662 11.749652 22.787204 22.787204 45.930459 33.112657 69.073714-4.984701 1.4242-9.613352 2.848401-14.242003 4.2726C325.785814 583.922114 206.86509 769.06815 188.706537 799.332406 120.700974 722.781641 79.399166 622.731572 79.399166 512.7121zM512.7121 945.312935c-99.337969 0-190.842837-33.468707-264.189151-90.080668 12.461752-24.211405 102.18637-185.858136 339.315716-268.461752h0.35605c59.460362 154.88178 84.739917 284.840056 91.504868 325.073713-51.27121 21.363004-107.527121 33.468707-166.987483 33.468707z m245.318498-76.194715c-5.696801-33.468707-29.196106-155.23783-82.959666-303.71071 30.264256-4.628651 59.460362-6.408901 87.232267-6.408901 90.436718 0 161.290682 19.938804 177.668985 24.923505-19.582754 117.852573-87.232267 219.682893-181.941586 285.196106z" fill="#C32361" /></svg>