<?xml version="1.0" standalone="no"?><!DOCTYPE svg PUBLIC "-//W3C//DTD SVG 1.1//EN" "http://www.w3.org/Graphics/SVG/1.1/DTD/svg11.dtd"><svg class="icon" width="200px" height="200.00px" viewBox="0 0 1024 1024" version="1.1" xmlns="http://www.w3.org/2000/svg"><path d="M512 981.333333C251.733333 981.333333 42.666667 772.266667 42.666667 512S251.733333 42.666667 512 42.666667s469.333333 209.066667 469.333333 469.333333-209.066667 469.333333-469.333333 469.333333z m0-853.333333c-213.333333 0-384 170.666667-384 384s170.666667 384 384 384 384-170.666667 384-384-170.666667-384-384-384zM507.733333 597.333333c-17.066667 0-34.133333-12.8-38.4-29.866666-8.533333-21.333333 4.266667-46.933333 25.6-55.466667 25.6-8.533333 98.133333-42.666667 98.133334-89.6 0-38.4-21.333333-68.266667-55.466667-81.066667-42.666667-17.066667-93.866667 8.533333-110.933333 51.2-8.533333 21.333333-34.133333 34.133333-55.466667 25.6-21.333333 0-29.866667-25.6-25.6-46.933333 29.866667-89.6 128-136.533333 217.6-102.4 68.266667 25.6 115.2 89.6 115.2 162.133333 0 110.933333-140.8 162.133333-157.866667 166.4h-12.8zM512 768c-12.8 0-21.333333-4.266667-29.866667-12.8-8.533333-8.533333-12.8-17.066667-12.8-29.866667 0-4.266667 0-12.8 4.266667-17.066666 4.266667-4.266667 4.266667-8.533333 8.533333-12.8 17.066667-17.066667 42.666667-17.066667 59.733334 0 4.266667 4.266667 8.533333 8.533333 8.533333 12.8 0 4.266667 4.266667 12.8 4.266667 17.066666s0 12.8-4.266667 17.066667c-4.266667 4.266667-4.266667 8.533333-8.533333 12.8-8.533333 8.533333-17.066667 12.8-29.866667 12.8z" /></svg>