<?xml version="1.0" standalone="no"?><!DOCTYPE svg PUBLIC "-//W3C//DTD SVG 1.1//EN" "http://www.w3.org/Graphics/SVG/1.1/DTD/svg11.dtd"><svg class="icon" width="200px" height="200.00px" viewBox="0 0 1024 1024" version="1.1" xmlns="http://www.w3.org/2000/svg"><path d="M955.305 522.605a110.357 110.357 0 0 1-31.87 33.03L589.272 781.153a138.084 138.084 0 0 1-154.489 0L100.62 555.635A110.467 110.467 0 0 1 57.538 429.15l377.908 251.865a138.084 138.084 0 0 0 144.326 5.413l8.837-5.413L966.407 429.15a110.246 110.246 0 0 1-11.102 93.455z m11.102 85.999a110.246 110.246 0 0 1-42.972 126.485L589.272 960.663a138.084 138.084 0 0 1-154.489 0L100.62 735.143A110.467 110.467 0 0 1 57.538 608.66l377.908 251.865a138.084 138.084 0 0 0 144.326 5.413l8.837-5.413L966.407 608.66zM588.61 38.372l351.562 234.356a55.234 55.234 0 0 1 0 91.909L588.61 598.993a138.084 138.084 0 0 1-153.218 0L83.829 364.637a55.234 55.234 0 0 1 0-91.91L435.39 38.373a138.084 138.084 0 0 1 153.218 0z m-100.857 65.23l-6.407 3.701-317.04 211.38 317.04 211.378a55.234 55.234 0 0 0 54.958 3.701l6.352-3.7 317.04-211.38-317.04-211.379a55.234 55.234 0 0 0-54.903-3.7z" /></svg>