<?xml version="1.0" standalone="no"?><!DOCTYPE svg PUBLIC "-//W3C//DTD SVG 1.1//EN" "http://www.w3.org/Graphics/SVG/1.1/DTD/svg11.dtd"><svg class="icon" width="200px" height="200.00px" viewBox="0 0 1024 1024" version="1.1" xmlns="http://www.w3.org/2000/svg"><path d="M810.478 135.775H578.75c-30.161 0-54.614-24.452-54.614-54.614s24.453-54.613 54.614-54.613h364.089c30.16 0 54.613 24.452 54.613 54.613v364.09c0 30.16-24.452 54.613-54.613 54.613s-54.614-24.453-54.614-54.614V212.5L546.868 551.94c-21.387 21.268-55.968 21.171-77.236-0.218-21.267-21.386-21.17-55.968 0.219-77.235l340.627-338.712z m132.36 546.133c30.162 0 54.614 24.452 54.614 54.613v78.886c0 100.54-81.505 182.045-182.045 182.045H208.593c-100.54 0-182.045-81.505-182.045-182.045V208.593c0-100.54 81.505-182.045 182.045-182.045h78.886c30.16 0 54.613 24.452 54.613 54.613s-24.452 54.614-54.613 54.614h-78.886c-40.218 0-72.818 32.6-72.818 72.818v606.814c0 40.218 32.6 72.818 72.818 72.818h606.814c40.218 0 72.818-32.6 72.818-72.818v-78.886c0-30.16 24.452-54.613 54.614-54.613z" /></svg>