<?xml version="1.0" standalone="no"?><!DOCTYPE svg PUBLIC "-//W3C//DTD SVG 1.1//EN" "http://www.w3.org/Graphics/SVG/1.1/DTD/svg11.dtd"><svg class="icon" width="200px" height="200.00px" viewBox="0 0 1024 1024" version="1.1" xmlns="http://www.w3.org/2000/svg"><path d="M511.03745067 986.9408c-85.50293333 0-163.98613333-26.68693333-214.51733334-66.54506667-25.6608 7.1488-58.4864 18.65493333-79.20213333 32.9216-17.7248 12.2016-15.51573333 24.6464-12.32 29.6704 14.02666667 22.06826667 240.62186667 14.09173333 306.03946667 7.21813334v-3.26506667z" fill="#FAAD08" /><path d="M495.62731733 986.9408c85.5008 0 163.98613333-26.68693333 214.51733334-66.54506667 25.6608 7.1488 58.48533333 18.65493333 79.2032 32.9216 17.72373333 12.2016 15.51253333 24.6464 12.32 29.6704-14.02666667 22.06826667-240.62293333 14.09173333-306.0416 7.21813334v-3.26506667z" fill="#FAAD08" /><path d="M496.137184 472.0256c140.7296-0.9344 253.5136-27.50186667 291.73013333-37.696 9.1104-2.432 13.984-6.78826667 13.984-6.78826667 0.032-1.25013333 0.57813333-22.3488 0.57813334-33.232C802.42945067 211.02186667 713.733984 26.8512 495.61665067 26.83946667 277.500384 26.8512 188.80065067 211.0208 188.80065067 394.30933333c0 10.8832 0.5504 31.98186667 0.58346666 33.232 0 0 3.9648 4.07573333 11.23093334 6.048 35.2832 9.57866667 150.18986667 37.4816 294.48533333 38.43626667h1.0368z" fill="#000000" /><path d="M883.50145067 626.96746667c-8.66133333-27.82506667-20.48426667-60.27306667-32.45546667-91.43466667 0 0-6.8864-0.848-10.36586667 0.15786667-107.424 31.152-237.62453333 51.00586667-336.8448 49.808h-1.02613333C404.14465067 586.6848 274.82731733 567.05813333 167.76491733 536.2112 163.67425067 535.03466667 155.59745067 535.53386667 155.59745067 535.53386667 143.62625067 566.6944 131.804384 599.1424 123.14411733 626.96746667 81.84491733 759.64586667 95.22411733 814.5536 105.41291733 815.78453333c21.8624 2.63893333 85.09866667-99.87946667 85.09866667-99.87946666 0 104.17066667 94.21226667 264.1248 309.94773333 265.59573333a765.87733333 765.87733333 0 0 1 5.7248 0C721.92171733 980.02986667 816.130784 820.0768 816.130784 715.90613333c0 0 63.23626667 102.5184 85.10186667 99.87946667 10.18666667-1.23093333 23.56586667-56.13866667-17.7312-188.81813333" fill="#000000" /><path d="M429.20811733 303.91146667c-29.76 1.32266667-55.19466667-32.11306667-56.78933333-74.61973334-1.6192-42.53546667 21.18186667-78.08746667 50.94826667-79.4176 29.73333333-1.3056 55.14986667 32.11626667 56.76586666 74.63893334 1.6288 42.53546667-21.17653333 78.08-50.9248 79.3984m220.448-74.61973334c-1.5936 42.50666667-27.02933333 75.94026667-56.78933333 74.61973334-29.7472-1.32053333-52.5536-36.86293333-50.9248-79.39733334 1.61386667-42.52586667 27.0304-75.94773333 56.76373333-74.63893333 29.7696 1.33013333 52.57066667 36.88106667 50.95146667 79.41653333" fill="#FFFFFF" /><path d="M695.40545067 359.0688c-7.8112-18.78293333-86.46613333-39.7088-183.8432-39.7088h-1.04533334c-97.376 0-176.03306667 20.92586667-183.84213333 39.7088a6.66026667 6.66026667 0 0 0-0.57066667 2.672c0 1.3536 0.4192 2.57493333 1.07306667 3.61173333 6.5792 10.416 93.92426667 61.88586667 183.3408 61.88586667h1.04533333c89.41546667 0 176.75733333-51.46666667 183.33973334-61.88373333a6.77546667 6.77546667 0 0 0 1.0688-3.62133334c0-0.9568-0.21333333-1.85173333-0.5664-2.66453333" fill="#FAAD08" /><path d="M464.67371733 239.33546667c1.344 16.94506667-7.8688 32-20.5504 33.6448-12.7008 1.64693333-24.0736-10.7552-25.42506666-27.70986667-1.32586667-16.95466667 7.87306667-32.00853333 20.53333333-33.64053333 12.72213333-1.65226667 24.11413333 10.76053333 25.44213333 27.7056m77.97013334 8.464c2.70186667-4.39253333 21.1488-27.488 59.328-19.0784 10.02773333 2.208 14.66666667 5.45706667 15.64586666 6.73706666 1.44533333 1.888 1.84106667 4.576 0.37546667 8.19626667-2.90346667 7.17333333-8.89386667 6.97813333-12.2176 5.5744-2.144-0.90666667-28.736-16.94826667-53.232 6.98986667-1.68426667 1.648-4.69866667 2.21226667-7.55733333 0.25813333-2.85653333-1.95626667-4.0384-5.9232-2.3424-8.67733333" fill="#000000" /><path d="M503.82145067 589.328h-1.03146667c-67.80586667 0.80213333-150.0224-8.00426667-229.6384-23.38133333-6.81706667 38.67946667-10.93333333 87.29386667-7.3984 145.27573333 8.928 146.54293333 97.728 238.65173333 234.79253333 239.99573333H506.11691733c137.06453333-1.344 225.86453333-93.4528 234.79466667-239.99573333 3.53493333-57.98613333-0.58346667-106.60053333-7.40266667-145.2832-79.63093333 15.38453333-161.86133333 24.19626667-229.68746666 23.3888" fill="#FFFFFF" /><path d="M310.69291733 581.3504v146.63253333s69.28746667 13.552 138.69973334 4.17066667V596.896c-43.97333333-2.4128-91.40053333-7.79093333-138.69973334-15.5456" fill="#EB1C26" /><path d="M806.50411733 427.2384s-130.112 43.07946667-302.6592 44.30826667h-1.02613333c-172.26346667-1.22346667-302.21653333-44.16106667-302.66026667-44.30826667l-43.5776 114.08213333c108.9984 34.464 244.0928 56.67733333 346.23786667 55.38773334l1.024-0.00213334c102.15253333 1.29706667 237.22666667-20.91733333 346.24-55.3856l-43.57866667-114.08213333z" fill="#EB1C26" /></svg>