<?xml version="1.0" standalone="no"?><!DOCTYPE svg PUBLIC "-//W3C//DTD SVG 1.1//EN" "http://www.w3.org/Graphics/SVG/1.1/DTD/svg11.dtd"><svg class="icon" width="200px" height="200.00px" viewBox="0 0 1024 1024" version="1.1" xmlns="http://www.w3.org/2000/svg"><path d="M512.30871325 2.76367133c-281.2431872 0-509.23982393 227.99081131-509.23982394 509.23283342 0.00116509 281.24901262 227.99663673 509.23865885 509.23982394 509.23865884 281.24085703 0 509.23166947-227.99081131 509.23166833-509.23865884 0-281.24202211-227.99081131-509.23283342-509.23166833-509.23283342z m194.7313755 586.25260088s2.24020594 14.70171933 4.8438784 25.64646116c0.16542379 0.73042603-84.38577038 2.65143523-153.70868622 0-36.39549155-1.39328512-80.21174045-8.13953365-80.21174159-8.13953366l200.66215709-143.07615174s-72.57546752-13.07544349-145.948928-15.67794973c-80.35969024-2.85413717-162.60893469 4.86135239-174.36448541 7.83897486-7.37182834 1.87208135 51.96277191 1.72529664 119.65242141 7.83897487 47.37751267 4.27887616 109.73167389 15.67795086 109.73167502 15.67795086l-200.66332217 149.36806855s85.93865387 5.21782841 163.02016398 4.70874339c86.74946275-0.57665195 165.0518437-11.36878592 165.5376293-9.28701326 15.09430841 65.35624704 42.96350265 194.53566293 32.59541163 205.08199254-14.11807687 14.35106759-215.51065998-113.30575246-215.51065885-113.3057536S329.71149767 839.0748069 317.16610845 828.99562496c-12.54771939-10.07918194 41.14617458-239.97935275 41.14617457-239.97935275s-181.77475811-151.36246898-174.34118713-169.95047538c7.43357099-18.58800526 240.94859491-35.01385614 240.94859492-35.01385614s86.75528704-218.33450837 107.75591253-218.33450837c20.99946041 0 107.75591253 218.33450837 107.75591253 218.33450837s234.49125433 16.51904739 240.94859378 35.01385614c6.45733945 18.49480875-174.34002091 169.95047538-174.3400209 169.95047538z" fill="#F5BE3F" /></svg>