<?xml version="1.0" standalone="no"?><!DOCTYPE svg PUBLIC "-//W3C//DTD SVG 1.1//EN" "http://www.w3.org/Graphics/SVG/1.1/DTD/svg11.dtd"><svg t="1678617737811" class="icon" viewBox="0 0 1024 1024" version="1.1" xmlns="http://www.w3.org/2000/svg" p-id="3345" xmlns:xlink="http://www.w3.org/1999/xlink" width="200" height="200"><path d="M512 512m-512 0a512 512 0 1 0 1024 0 512 512 0 1 0-1024 0Z" fill="#1A71FF" opacity=".1" p-id="3346"></path><path d="M647.04 256c28.8 0 55.936 13.408 73.344 36.256l99.84 130.976c7.648 10.048 11.776 22.272 11.776 34.848 0 12.544-4.416 24.64-12.512 34.24l-272.192 323.264a46.176 46.176 0 0 1-70.592 0L204.48 492.32C196.416 482.72 192 470.624 192 458.08c0-12.576 4.128-24.8 11.776-34.848l99.84-130.976A92.224 92.224 0 0 1 376.96 256h270.08z m-12.576 143.04a18.656 18.656 0 0 0-26.336 0.832l-96.064 102.144-96.224-102.144-3.296-2.784a18.656 18.656 0 0 0-23.84 28.352L498.56 542.08l3.456 2.88c7.36 4.8 17.408 3.84 23.712-2.88l109.568-116.672 2.56-3.456a18.656 18.656 0 0 0-3.392-22.912z" fill="#1A71FF" p-id="3347"></path></svg>