<?xml version="1.0" standalone="no"?><!DOCTYPE svg PUBLIC "-//W3C//DTD SVG 1.1//EN" "http://www.w3.org/Graphics/SVG/1.1/DTD/svg11.dtd"><svg class="icon" width="200px" height="200.00px" viewBox="0 0 1024 1024" version="1.1" xmlns="http://www.w3.org/2000/svg"><path d="M781.756 629.408c-68.195 0-127.768 36.247-161.973 90.433L413.426 600.218c13.282-26.556 21.535-56.225 21.535-88.163 0-19.736-3.707-38.278-9.086-56.225l214.722-124.528c36.247 40.318 87.447 63.399 141.159 63.399 106.465 0 192.72-87.566 192.72-195.584-0.13-108.138-86.381-195.704-192.72-195.704-106.466 0-192.72 87.566-192.72 195.588 0 19.74 3.713 38.28 9.093 56.224L383.403 379.757c-36.25-40.318-87.447-63.283-141.159-63.402-106.458 0-192.717 87.565-192.717 195.587 0 108.022 86.259 195.59 192.717 195.59 43.903 0 83.982-15.43 116.402-40.556l-0.72 1.433 233.27 135.42c-0.72 7.053-2.154 13.873-2.154 21.177 0 108.018 86.248 195.584 192.714 195.584s192.72-87.566 192.72-195.584c-0.13-108.029-86.381-195.598-192.72-195.598z m0-547.761c41.274 0 79.428 22.37 100.126 58.737 20.695 36.362 20.695 81.107 0 117.35-20.698 36.366-58.852 58.737-100.126 58.737-63.888 0-115.559-52.518-115.559-117.35-0.123-64.96 51.671-117.474 115.559-117.474zM242.24 629.408c-41.27 0-79.432-22.37-100.127-58.733-20.695-36.365-20.695-81.107 0-117.354 20.695-36.362 58.856-58.736 100.127-58.736 63.884 0 115.558 52.514 115.558 117.35 0.004 64.963-51.678 117.473-115.558 117.473zM781.756 942.47c-41.274 0-79.432-22.37-100.127-58.737-20.695-36.358-20.695-81.104 0-117.353 20.695-36.36 58.853-58.734 100.127-58.734 63.88 0 115.555 52.515 115.555 117.354 0.003 64.833-51.678 117.47-115.555 117.47z" /></svg>