<?xml version="1.0" standalone="no"?><!DOCTYPE svg PUBLIC "-//W3C//DTD SVG 1.1//EN" "http://www.w3.org/Graphics/SVG/1.1/DTD/svg11.dtd"><svg t="1681751384481" class="icon" viewBox="0 0 1024 1024" version="1.1" xmlns="http://www.w3.org/2000/svg" p-id="4027" xmlns:xlink="http://www.w3.org/1999/xlink" width="200" height="200"><path d="M876.98510928 321.88642468c-0.65911541-7.41504721-1.23584162-14.91248447-1.89495703-22.32753167-5.520091-65.08763799-11.20496045-132.48217914-9.06283575-182.6573335 0.5767262-13.01752744-9.39239346-24.05770944-22.40992089-24.79921325L822.85526324 90.86650464c-8.07416262-0.49433616-15.81876755 3.13079783-20.59735391 9.63956194-13.26469592 18.04328229-15.15965212 19.69107001-38.31107766 19.69107001H270.84618186c-14.00620057 0-25.04638257 0-30.81364124-2.14212468-3.37796631-1.31823083-8.15655185-4.20186017-14.66531598-15.40682063-4.28424939-7.33265798-12.11124436-11.78168664-20.59735391-11.78168664h-19.60868079C172.30844177 90.86650464 161.84498596 101.00040274 161.35064898 113.85315174c-2.05973547 58.33170621-5.520091 135.20103003-13.34708513 212.56469082-1.40062006 14.00620057 9.55717191 26.19983413 23.72815172 26.19983414h19.60868079c10.62823425 0 20.02062772-7.0854895 22.90425787-17.30177766 16.14832525-56.5191384 28.50673728-94.99499533 52.07010974-113.77978225 22.24514245-17.71372458 59.64993622-24.3048771 137.91988093-24.30487711h28.17718039c13.1823067 0 23.81054096 10.62823425 23.81054095 23.81054096v551.92669134c0 41.7714332-1.97734626 64.92285874-12.68797055 75.7982623-11.36973889 11.45212894-39.95886622 17.54894531-95.65411075 20.35018542-12.68796972 0.65911541-22.65708938 11.12257123-22.65708855 23.81054097v17.13699837c0 13.1823067 10.62823425 23.81054096 23.81054094 23.81054096h330.38155399c13.1823067 0 23.81054096-10.62823425 23.81054095-23.81054096v-17.13699837c0-12.68796972-9.96911883-23.15142554-22.65708938-23.81054097-58.9908208-2.80124011-87.99189504-8.81566727-100.10313858-20.67974313-10.95779197-10.7106243-13.01752744-33.77965979-13.01752826-75.46870459V221.04178064c0-13.1823067 10.62823425-23.81054096 23.81054095-23.81054096h61.21533554c94.50065918 0 129.92810752 11.20496045 156.53988858 136.51926086 2.80124011 13.09991665 15.73637832 21.33885855 28.75390577 18.20806074l20.76213318-4.86097558c11.61690738-2.71885089 19.44390234-13.42947437 18.45522921-25.21116102z" fill="#4b6bfa" p-id="4028"></path></svg>