<svg width="17" height="17" viewBox="0 0 17 17" fill="none" xmlns="http://www.w3.org/2000/svg">
<path d="M5.43443 15.7768L4.27986 13.9168L2.09016 13.4613C1.8911 13.4233 1.73185 13.3252 1.61241 13.1667C1.49297 13.0083 1.44653 12.8345 1.47307 12.6452L1.69204 10.5005L0.199063 8.86825C0.0663544 8.72907 0 8.56458 0 8.37478C0 8.18499 0.0663544 8.0205 0.199063 7.88132L1.69204 6.24907L1.47307 4.10438C1.44653 3.91459 1.49297 3.74048 1.61241 3.58207C1.73185 3.42365 1.8911 3.32572 2.09016 3.28826L4.27986 2.83275L5.43443 0.972757C5.54059 0.808268 5.68657 0.697427 5.87237 0.640235C6.05816 0.583044 6.24395 0.59266 6.42974 0.669084L8.5 1.50418L10.5703 0.669084C10.7561 0.593166 10.9418 0.58355 11.1276 0.640235C11.3134 0.696921 11.4594 0.807762 11.5656 0.972757L12.7201 2.83275L14.9098 3.28826C15.1089 3.32622 15.2681 3.42441 15.3876 3.58283C15.507 3.74124 15.5535 3.91509 15.5269 4.10438L15.308 6.24907L16.8009 7.88132C16.9336 8.0205 17 8.18499 17 8.37478C17 8.56458 16.9336 8.72907 16.8009 8.86825L15.308 10.5005L15.5269 12.6452C15.5535 12.835 15.507 13.0091 15.3876 13.1675C15.2681 13.3259 15.1089 13.4239 14.9098 13.4613L12.7201 13.9168L11.5656 15.7768C11.4594 15.9413 11.3134 16.0521 11.1276 16.1093C10.9418 16.1665 10.7561 16.1569 10.5703 16.0805L8.5 15.2454L6.42974 16.0805C6.24395 16.1564 6.05816 16.166 5.87237 16.1093C5.68657 16.0526 5.54059 15.9418 5.43443 15.7768ZM7.66393 8.90621L6.50937 7.82438C6.36339 7.68519 6.18078 7.6156 5.96155 7.6156C5.74231 7.6156 5.55333 7.69152 5.39461 7.84336C5.24863 7.98254 5.17564 8.15968 5.17564 8.37478C5.17564 8.58989 5.24863 8.76703 5.39461 8.90621L7.10656 10.5385C7.26581 10.6903 7.4516 10.7662 7.66393 10.7662C7.87627 10.7662 8.06206 10.6903 8.22131 10.5385L11.6054 7.31193C11.7646 7.16009 11.8408 6.98295 11.8339 6.7805C11.827 6.57805 11.7508 6.40091 11.6054 6.24907C11.4461 6.09724 11.2569 6.01828 11.0377 6.01221C10.8184 6.00614 10.6294 6.07876 10.4707 6.23009L7.66393 8.90621Z" fill="#1D9BF0"/>
</svg>
