<?xml version="1.0" standalone="no"?><!DOCTYPE svg PUBLIC "-//W3C//DTD SVG 1.1//EN" "http://www.w3.org/Graphics/SVG/1.1/DTD/svg11.dtd"><svg t="1678895953952" class="icon" viewBox="0 0 1024 1024" version="1.1" xmlns="http://www.w3.org/2000/svg" p-id="3788" xmlns:xlink="http://www.w3.org/1999/xlink" width="200" height="200"><path d="M910.2336 284.4672H113.7664V170.7008c0-31.4368 25.4976-56.9344 56.9344-56.9344h682.7008c31.4368 0 56.9344 25.4976 56.9344 56.9344l-0.1024 113.7664z m0 56.832v512c0 31.4368-25.4976 56.9344-56.9344 56.9344H170.7008c-31.4368 0-56.9344-25.4976-56.9344-56.9344v-512h796.4672zM284.4672 170.7008l57.2416 113.7664h56.9344l-57.2416-113.7664h-56.9344z m170.5984 0l57.2416 113.7664h56.9344L512 170.7008h-56.9344z m170.7008 0L683.008 284.4672h56.9344l-57.2416-113.7664h-56.9344z m6.0416 452.096c5.5296-2.7648 9.9328-7.168 12.6976-12.6976 7.0656-14.0288 1.3312-31.1296-12.6976-38.1952l-192.4096-96.1536c-3.9936-1.9456-8.2944-2.9696-12.6976-2.9696-15.6672 0-28.4672 12.6976-28.4672 28.4672v192.4096c0 4.4032 1.024 8.8064 2.9696 12.6976 7.0656 14.0288 24.064 19.7632 38.1952 12.6976l192.4096-96.256z" fill="#ffffff" p-id="3789" data-spm-anchor-id="a313x.7781069.0.i4" class="selected"></path></svg>