<svg width="169" height="44" viewBox="0 0 169 44" fill="none" xmlns="http://www.w3.org/2000/svg">
<rect width="169" height="44" rx="22" fill="#242424"/>
<path d="M57.3785 26.4443C57.8238 26.374 58.2691 26.3008 58.7145 26.2246V15.5459H57.5719V14.3154H65.1656V15.5459H63.8473V25.3193C64.3805 25.2197 64.9137 25.1201 65.4469 25.0205C65.4703 25.501 65.5113 25.9111 65.5699 26.251C65.0133 26.3623 64.4391 26.4766 63.8473 26.5938V30.3115H62.5641V26.8574C61.0582 27.1621 59.441 27.4932 57.7125 27.8506L57.3785 26.4443ZM64.4625 21.2588H68.523C68.5699 20.4033 68.5904 19.3428 68.5846 18.0771H64.9547V16.7764H69.7008C70.2281 15.9326 70.9195 14.6963 71.775 13.0674L73.1461 13.7178C72.4195 14.8486 71.7428 15.8682 71.1158 16.7764H74.0602V18.0771H69.9469C69.9469 19.3486 69.9264 20.4092 69.8854 21.2588H74.6578V22.5596H70.0611C70.9576 25.3604 72.5719 27.4404 74.9039 28.7998C74.482 29.2217 74.107 29.6611 73.7789 30.1182C71.6988 28.542 70.234 26.5674 69.3844 24.1943C68.7398 26.708 67.316 28.7412 65.1129 30.2939C64.7496 29.8369 64.4215 29.4561 64.1285 29.1514C66.5719 27.6104 68.0016 25.4131 68.4176 22.5596H64.4625V21.2588ZM62.5641 25.5566V23.0693H59.9977V26.0049C60.859 25.8584 61.7145 25.709 62.5641 25.5566ZM59.9977 21.874H62.5641V19.3076H59.9977V21.874ZM59.9977 18.1123H62.5641V15.5459H59.9977V18.1123ZM65.6227 13.7881L66.6422 13.0674C67.3453 13.8643 68.0074 14.7373 68.6285 15.6865L67.4859 16.4775C66.9938 15.6689 66.3727 14.7725 65.6227 13.7881ZM88.6887 20.2744C90.1887 21.4814 91.7238 22.8057 93.2941 24.2471C92.9074 24.6221 92.55 24.9795 92.2219 25.3193C91.7355 24.8389 91.2434 24.3643 90.7453 23.8955C89.1809 23.96 87.5813 24.0361 85.9465 24.124V28.0791C85.9465 29.415 85.2434 30.083 83.8371 30.083C83.2629 30.083 82.507 30.0713 81.5695 30.0479C81.5109 29.6143 81.4348 29.1338 81.341 28.6064C82.3254 28.7119 83.0813 28.7646 83.6086 28.7646C84.2531 28.7646 84.5754 28.4482 84.5754 27.8154V24.1943C83.1516 24.2705 81.7043 24.3525 80.2336 24.4404C79.5656 24.4756 78.9035 24.5518 78.2473 24.6689L77.6672 23.1572C78.4406 23.0166 79.173 22.7881 79.8645 22.4717C81.6574 21.5928 83.3215 20.708 84.8566 19.8174C82.8176 19.9756 81.1066 20.1162 79.7238 20.2393C79.1145 20.2979 78.6516 20.3623 78.3352 20.4326L77.7727 18.9561C78.3352 18.8154 78.8625 18.6104 79.3547 18.3408C80.8254 17.5205 82.299 16.5508 83.7756 15.4316C81.7658 15.5547 79.7297 15.6631 77.6672 15.7568C77.5852 15.3467 77.4797 14.9365 77.3508 14.5264C82.9406 14.3154 87.9035 13.9932 92.2395 13.5596L92.5031 14.8076C89.9602 15.0186 87.3791 15.209 84.76 15.3789L85.4719 15.8799C83.632 17.1104 81.9328 18.1475 80.3742 18.9912C82.9992 18.8447 85.173 18.7041 86.8957 18.5693C88.0676 17.8193 89.1516 17.0635 90.1477 16.3018L91.2902 17.2334C88.3488 19.3311 84.9328 21.2939 81.0422 23.1221C83.3742 23.04 86.2014 22.917 89.5236 22.7529C88.9377 22.2139 88.3488 21.6865 87.757 21.1709L88.6887 20.2744ZM87.6516 26.04L88.548 25.0908C90.0246 26.0752 91.6477 27.2529 93.4172 28.624L92.3801 29.7666C90.7395 28.4072 89.1633 27.165 87.6516 26.04ZM80.7785 25.1084L81.9211 26.0049C80.4211 27.3525 78.8449 28.6533 77.1926 29.9072C76.9113 29.5674 76.5891 29.21 76.2258 28.835C77.7492 27.792 79.2668 26.5498 80.7785 25.1084ZM101.384 28.0264C103.059 27.2295 104.574 26.3096 105.928 25.2666C105.441 23.7139 105.125 21.833 104.978 19.624H100.399V22.5332C101.559 22.3281 102.761 22.1084 104.003 21.874C104.026 22.4014 104.044 22.8643 104.055 23.2627C102.825 23.4971 101.606 23.7314 100.399 23.9658V28.0967C100.399 29.4326 99.7605 30.1064 98.4832 30.1182C97.698 30.1299 96.9129 30.1123 96.1277 30.0654C96.0691 29.5381 95.9695 29.04 95.8289 28.5713C96.6844 28.6885 97.452 28.7471 98.1316 28.7471C98.6824 28.7588 98.9578 28.4775 98.9578 27.9033V24.2471C97.7977 24.4756 96.6492 24.7041 95.5125 24.9326L95.1609 23.4209C96.3738 23.2275 97.6395 23.0166 98.9578 22.7881V19.624H95.1785V18.3232H98.9578V15.6689C98.032 15.792 97.0359 15.915 95.9695 16.0381C95.8875 15.5928 95.7586 15.124 95.5828 14.6318C98.4656 14.3623 100.944 14.0107 103.018 13.5771L103.44 14.9834C102.555 15.1416 101.542 15.3057 100.399 15.4756V18.3232H104.899C104.817 16.8877 104.729 15.1533 104.636 13.1201H106.112C106.153 14.9951 106.215 16.7295 106.297 18.3232H112.721V19.624H106.376C106.511 21.4346 106.751 22.9932 107.096 24.2998C108.391 23.1514 109.511 21.874 110.454 20.4678L111.72 21.3115C110.495 22.9697 109.112 24.4434 107.571 25.7324C107.899 26.5645 108.292 27.2471 108.749 27.7803C109.346 28.4834 109.868 28.835 110.313 28.835C110.559 28.835 110.735 28.6416 110.841 28.2549C111.005 27.6455 111.175 26.6553 111.35 25.2842C111.843 25.5068 112.294 25.6768 112.704 25.7939C112.493 27.1064 112.282 28.126 112.071 28.8525C111.802 29.79 111.227 30.2646 110.348 30.2764C109.341 30.2646 108.386 29.6611 107.483 28.4658C107.085 27.9443 106.733 27.332 106.429 26.6289C105.145 27.5781 103.762 28.4131 102.28 29.1338C101.975 28.6768 101.677 28.3076 101.384 28.0264ZM107.518 14.6846L108.432 13.7529C109.464 14.5381 110.518 15.4111 111.596 16.3721L110.524 17.4619C109.563 16.4893 108.561 15.5635 107.518 14.6846ZM130.655 27.3232C130.655 28.3311 130.479 29.04 130.127 29.4502C129.752 29.8604 129.102 30.083 128.176 30.1182C127.473 30.1416 126.571 30.1299 125.469 30.083C125.422 29.7314 125.329 29.2568 125.188 28.6592C126.161 28.7295 127.057 28.7646 127.877 28.7646C128.428 28.7764 128.809 28.6357 129.02 28.3428C129.149 28.1436 129.213 27.7627 129.213 27.2002V15.9854H124.678V14.6143H130.655V27.3232ZM114.079 21.6104C115.883 18.9033 117.184 16.0967 117.981 13.1904L119.352 13.7354C118.895 15.0771 118.391 16.3604 117.84 17.585V30.2764H116.452V20.3535C115.889 21.3672 115.286 22.3311 114.641 23.2451C114.5 22.7646 114.313 22.2197 114.079 21.6104ZM120.389 30.1006V17.1807H121.83V30.1006H120.389ZM120.442 13.8936L121.479 13.1201C122.545 14.3623 123.289 15.2646 123.711 15.8271L122.498 16.6885C122.053 15.9854 121.368 15.0537 120.442 13.8936Z" fill="white"/>
<path d="M31.0716 24.2099C30.7213 24.5591 30.3075 24.8381 29.8526 25.0322C29.0335 25.378 28.1197 25.4284 27.2675 25.175C26.4153 24.9215 25.6777 24.3798 25.1807 23.6426L23.5918 24.715C24.0062 25.3265 24.5335 25.8534 25.1453 26.2675C25.7678 26.6885 26.4674 26.9825 27.2038 27.1328C28.3432 27.3648 29.5261 27.2479 30.5982 26.7974C31.2804 26.5079 31.9008 26.0902 32.4257 25.5669C32.6864 25.3072 32.924 25.0197 33.1291 24.715L31.5402 23.6426C31.4019 23.8458 31.245 24.0357 31.0716 24.2099Z" fill="white"/>
<path d="M28.5003 11.917C23.2161 11.917 18.917 16.2161 18.917 21.5003C18.917 26.7846 23.2161 31.0837 28.5003 31.0837C33.7846 31.0837 38.0837 26.7846 38.0837 21.5003C38.0837 16.2161 33.7846 11.917 28.5003 11.917ZM28.5003 13.8337C31.3303 13.8337 33.8009 15.3795 35.1301 17.667H21.8706C23.1998 15.3795 25.6704 13.8337 28.5003 13.8337ZM28.5003 29.167C24.2731 29.167 20.8337 25.7275 20.8337 21.5003C20.8337 20.8381 20.9276 20.198 21.0867 19.5837H21.792V20.542C21.792 21.0503 21.9939 21.5378 22.3534 21.8973C22.7128 22.2567 23.2003 22.4587 23.7087 22.4587H25.6253C26.1337 22.4587 26.6212 22.2567 26.9806 21.8973C27.3401 21.5378 27.542 21.0503 27.542 20.542H29.4587C29.4587 21.0503 29.6606 21.5378 30.02 21.8973C30.3795 22.2567 30.867 22.4587 31.3753 22.4587H33.292C33.8003 22.4587 34.2878 22.2567 34.6473 21.8973C35.0067 21.5378 35.2087 21.0503 35.2087 20.542V19.5837H35.914C36.0731 20.198 36.167 20.8381 36.167 21.5003C36.167 25.7275 32.7275 29.167 28.5003 29.167Z" fill="white"/>
</svg>
