<svg width="169" height="44" viewBox="0 0 169 44" fill="none" xmlns="http://www.w3.org/2000/svg">
<rect width="169" height="44" rx="22" fill="white"/>
<path d="M57.5191 30.2568C60.9293 29.1436 63.2027 27.3447 64.3395 24.8604H60.859V25.5283H59.5055V20.2549C59.107 20.5947 58.7027 20.917 58.2926 21.2217C58.152 21.0225 57.8355 20.6357 57.3434 20.0615C59.441 18.6436 61.3805 16.6338 63.1617 14.0322L64.4977 14.5244C64.1813 14.9932 63.8648 15.4443 63.5484 15.8779H70.4215V17.126L68.4527 19.0947H72.6715V25.5283H71.318V24.8604H65.816C64.7262 27.8486 62.2652 30.0811 58.4332 31.5576C58.1051 30.9717 57.8004 30.5381 57.5191 30.2568ZM71.318 20.3252H66.6598C66.5777 21.5557 66.4195 22.6572 66.1852 23.6299H71.318V20.3252ZM60.859 23.6299H64.7789C65.0602 22.6807 65.2301 21.5791 65.2887 20.3252H60.859V23.6299ZM68.5758 17.1084H62.5816C61.9957 17.8115 61.3922 18.4736 60.7711 19.0947H66.6246L68.5758 17.1084ZM66.027 25.7568H67.3805V28.3584C67.3805 28.874 67.4684 29.2139 67.6441 29.3779C67.8316 29.5654 68.2008 29.6592 68.7516 29.6592H71.775C72.6188 29.6592 73.0992 29.3076 73.2164 28.6045C73.357 27.8428 73.4508 26.9873 73.4977 26.0381C73.9547 26.2256 74.4059 26.3955 74.8512 26.5479C74.7691 27.4619 74.6637 28.2939 74.5348 29.0439C74.3473 30.3213 73.4508 30.96 71.8453 30.96H68.3473C67.4566 30.96 66.8473 30.7783 66.5191 30.415C66.191 30.1104 66.027 29.5068 66.027 28.6045V25.7568ZM77.5266 15.6318H82.5715C82.5949 15.1045 82.6066 14.6123 82.6066 14.1553H83.8723C83.8723 14.6123 83.8605 15.1045 83.8371 15.6318H86.8957V14.1553H88.1613V15.6318H92.3977V19.6396H91.132V19.2002H88.1613V20.7822H93.1887C93.1652 21.626 93.1008 22.3467 92.9953 22.9443C92.8664 23.7646 92.3391 24.1748 91.4133 24.1748C91.2727 24.1748 91.0969 24.1748 90.8859 24.1748V28.4639H89.6203V24.8779H80.7961V28.6748H79.5305V24.8779C78.8156 25.1943 78.0012 25.4873 77.0871 25.7568C76.9348 25.417 76.6828 25.0127 76.3313 24.5439C79.0031 23.9697 80.7668 23.0557 81.6223 21.8018H77.7551L78.3176 18.1807H82.5012C82.5363 17.7236 82.5539 17.2139 82.5539 16.6514H77.5266V15.6318ZM89.3918 22.9443C90.048 23.0146 90.593 23.0498 91.0266 23.0498C91.4953 23.0498 91.7648 22.874 91.8352 22.5225C91.882 22.2646 91.9113 22.0244 91.923 21.8018H88.1613V23.5244H86.8957V21.8018H83.1164C82.8 22.5166 82.2492 23.167 81.4641 23.7529H89.6379C89.5793 23.5303 89.4973 23.2607 89.3918 22.9443ZM84.5754 25.8623H85.8234C85.8234 26.6123 85.7414 27.2744 85.5773 27.8486C88.2492 28.6338 90.675 29.4131 92.8547 30.1865L92.2043 31.4521C89.8371 30.5732 87.4816 29.7471 85.1379 28.9736C84.4113 30.1572 82.009 30.9893 77.9309 31.4697C77.7082 30.9072 77.509 30.4854 77.3332 30.2041C80.0402 29.9463 82.0734 29.4951 83.4328 28.8506C84.218 28.4639 84.5988 27.4678 84.5754 25.8623ZM83.4504 20.7822H86.8957V19.2002H83.6965C83.6379 19.8213 83.5559 20.3486 83.4504 20.7822ZM79.1789 20.7822H82.1145C82.2434 20.3721 82.343 19.8447 82.4133 19.2002H79.3898L79.1789 20.7822ZM83.7668 18.1807H86.8957V16.6514H83.8195C83.8195 17.2021 83.802 17.7119 83.7668 18.1807ZM91.132 16.6514H88.1613V18.1807H91.132V16.6514ZM99.5203 28.9561H105.427V23.9639H100.856V22.6279H105.427V18.374H100.364V17.0381H105.971C105.421 16.165 104.858 15.3682 104.284 14.6475L105.444 13.9092C106.229 14.8232 106.85 15.6318 107.307 16.335L106.209 17.0381H112.106V18.374H106.903V22.6279H111.473V23.9639H106.903V28.9561H112.598V30.292H99.5203V28.9561ZM97.6395 23.8936C98.1199 24.1045 98.5828 24.2979 99.0281 24.4736C98.3836 26.5361 97.7098 28.7861 97.0066 31.2236L95.4949 30.6963C96.2332 28.6924 96.948 26.4248 97.6395 23.8936ZM96.7254 14.2783C97.8621 15.1338 98.8758 15.9893 99.7664 16.8447C99.368 17.2432 99.0164 17.6006 98.7117 17.917C98.0789 17.249 97.118 16.3584 95.8289 15.2451L96.7254 14.2783ZM96.0574 18.8311C96.9012 19.417 97.9383 20.2139 99.1687 21.2217C98.7352 21.7139 98.3895 22.0947 98.1316 22.3643C96.9012 21.2393 95.9168 20.3955 95.1785 19.833L96.0574 18.8311ZM123.852 14.9463H129.653V21.2393H131.534V22.54H129.653V29.2725C129.653 30.4912 129.09 31.1006 127.965 31.1006C127.157 31.1006 126.407 31.083 125.715 31.0479C125.68 30.708 125.604 30.2744 125.487 29.7471C126.342 29.8291 127.028 29.8701 127.543 29.8701C128.059 29.8701 128.317 29.6006 128.317 29.0615V22.54H125.188V23.5771C125.188 26.7061 124.526 29.3135 123.202 31.3994C122.92 31.0947 122.563 30.7666 122.129 30.415C123.278 28.6104 123.852 26.3545 123.852 23.6475V22.54H121.62V28.7451C121.62 29.917 121.039 30.5029 119.879 30.5029C119.246 30.5029 118.637 30.4854 118.051 30.4502C118.016 30.1104 117.94 29.6709 117.823 29.1318C118.467 29.2139 119.041 29.2549 119.545 29.2549C120.038 29.2549 120.284 28.9912 120.284 28.4639V22.54H117.278V23.8057C117.278 26.9463 116.61 29.4775 115.274 31.3994C114.993 31.0596 114.641 30.7314 114.219 30.415C115.356 28.6689 115.924 26.5068 115.924 23.9287V22.54H114.202V21.2393H115.924V14.9463H121.62V21.2393H123.852V14.9463ZM128.317 16.1768H125.188V21.2393H128.317V16.1768ZM120.284 16.1768H117.278V21.2393H120.284V16.1768Z" fill="black"/>
<path d="M34.8676 20.6C34.6089 20.2625 34.2939 19.97 34.0014 19.6775C33.2476 19.0025 32.3926 18.5188 31.6726 17.81C29.9964 16.1675 29.6251 13.4563 30.6939 11.375C29.6251 11.6338 28.6914 12.2188 27.8926 12.86C24.9789 15.2 23.8314 19.3288 25.2039 22.8725C25.2489 22.985 25.2939 23.0975 25.2939 23.2438C25.2939 23.4913 25.1251 23.7163 24.9001 23.8063C24.6414 23.9188 24.3714 23.8513 24.1576 23.6713C24.0934 23.6181 24.0399 23.5532 24.0001 23.48C22.7289 21.8713 22.5264 19.565 23.3814 17.72C21.5026 19.25 20.4789 21.8375 20.6251 24.2788C20.6926 24.8413 20.7601 25.4038 20.9514 25.9663C21.1089 26.6413 21.4126 27.3163 21.7501 27.9125C22.9651 29.8588 25.0689 31.2538 27.3301 31.535C29.7376 31.8388 32.3139 31.4 34.1589 29.735C36.2176 27.8675 36.9376 24.875 35.8801 22.31L35.7339 22.0175C35.4976 21.5 34.8676 20.6 34.8676 20.6ZM31.3126 27.6875C30.9976 27.9575 30.4801 28.25 30.0751 28.3625C28.8151 28.8125 27.5551 28.1825 26.8126 27.44C28.1514 27.125 28.9501 26.135 29.1864 25.1337C29.3776 24.2337 29.0176 23.4912 28.8714 22.625C28.7364 21.7925 28.7589 21.0837 29.0626 20.3075C29.2764 20.735 29.5014 21.1625 29.7714 21.5C30.6376 22.625 31.9989 23.12 32.2914 24.65C32.3364 24.8075 32.3589 24.965 32.3589 25.1337C32.3926 26.0562 31.9876 27.0687 31.3126 27.6875Z" fill="#8943FD"/>
</svg>
