<svg width="148" height="40" viewBox="0 0 148 40" fill="none" xmlns="http://www.w3.org/2000/svg">
<rect width="148" height="40" rx="20" fill="url(#paint0_linear_235_216)"/>
<rect x="0.5" y="0.5" width="147" height="39" rx="19.5" stroke="url(#paint1_linear_235_216)" stroke-opacity="0.82"/>
<path d="M51.2375 12.7422L52.4875 12.9297C52.2687 13.9401 52.0135 14.8828 51.7219 15.7578H56.5031V16.8203H55.5187C55.2583 19.8828 54.5917 22.3151 53.5187 24.1172C54.3625 25.263 55.4354 26.2005 56.7375 26.9297C56.4042 27.388 56.1229 27.7995 55.8937 28.1641C54.6229 27.3411 53.5656 26.362 52.7219 25.2266C51.7635 26.4141 50.6229 27.4453 49.3 28.3203C49.0708 28.0182 48.774 27.6901 48.4094 27.3359C49.8677 26.3776 51.05 25.2891 51.9562 24.0703C51.1125 22.612 50.5552 20.9297 50.2844 19.0234C50.0656 19.4089 49.8365 19.7682 49.5969 20.1016C49.3885 19.7995 49.1281 19.4661 48.8156 19.1016C50.024 17.362 50.8312 15.2422 51.2375 12.7422ZM41.175 21.7578H43.55C43.7792 21.362 44.0031 20.9557 44.2219 20.5391L45.3469 20.8984C45.1802 21.1901 45.0135 21.4766 44.8469 21.7578H48.675V22.7734C48.2792 23.7943 47.6802 24.6901 46.8781 25.4609C47.451 25.7318 48.0344 26.0026 48.6281 26.2734L47.9406 27.3516C47.2948 26.987 46.6229 26.6224 45.925 26.2578C44.7479 27.1016 43.2635 27.7682 41.4719 28.2578C41.3052 27.9245 41.1281 27.5599 40.9406 27.1641C42.4615 26.8203 43.7479 26.3255 44.8 25.6797C43.9042 25.2214 42.9667 24.7526 41.9875 24.2734C42.3208 23.7943 42.6437 23.2995 42.9562 22.7891H41.175V21.7578ZM41.3469 16.3828H44.9406V12.8828H46.0969V16.3828H49.0969V17.4141H46.0969V18.3672L46.5656 17.8359C47.5344 18.5443 48.3469 19.1693 49.0031 19.7109L48.2531 20.5859C47.6802 20.0443 46.9615 19.4349 46.0969 18.7578V20.5391H44.9406V18.3516C43.9927 19.3411 42.8885 20.2109 41.6281 20.9609C41.4302 20.6589 41.2062 20.3411 40.9562 20.0078C42.2687 19.2995 43.4719 18.4349 44.5656 17.4141H41.3469V16.3828ZM54.2687 16.8203H51.3469C51.2948 16.9557 51.2375 17.0859 51.175 17.2109C51.3625 19.4193 51.8833 21.3099 52.7375 22.8828C53.5708 21.362 54.0812 19.3411 54.2687 16.8203ZM43.5187 23.9141C44.2583 24.2474 45.0187 24.5964 45.8 24.9609C46.5187 24.3464 47.0812 23.6224 47.4875 22.7891H44.2375C43.9979 23.1745 43.7583 23.5495 43.5187 23.9141ZM48.3937 13.2734L49.3625 13.9141C48.7896 14.6641 48.2167 15.3568 47.6437 15.9922C47.4042 15.7839 47.1229 15.5651 46.8 15.3359C47.3417 14.7005 47.8729 14.013 48.3937 13.2734ZM41.7531 13.9609L42.6437 13.3516C43.1125 13.9245 43.5969 14.5391 44.0969 15.1953L43.1281 15.8828C42.6698 15.2057 42.2115 14.5651 41.7531 13.9609ZM57.9125 21.9297H65.2406V20.9453L68.3187 19.0078H60.7562V17.8672H70.225V19.1328L66.5219 21.5078V21.9297H73.35V23.0859H66.5219V25.9609C66.5219 27.2839 65.8604 27.9453 64.5375 27.9453C64.0062 27.9453 63.2302 27.9349 62.2094 27.9141C62.1677 27.5182 62.1052 27.0547 62.0219 26.5234C62.8448 26.638 63.574 26.6953 64.2094 26.6953C64.8969 26.6953 65.2406 26.3255 65.2406 25.5859V23.0859H57.9125V21.9297ZM58.5062 15.0391H65.6937C65.3083 14.4922 64.8448 13.8932 64.3031 13.2422L65.35 12.5391C66.0062 13.2578 66.5479 13.9245 66.975 14.5391L66.2328 15.0391H72.8187V18.2109H71.5531V16.1797H59.7562V18.2109H58.5062V15.0391ZM81.275 26.8672C82.4781 26.0599 83.551 25.1198 84.4937 24.0469C83.8896 22.5104 83.5328 20.0286 83.4234 16.6016H77.525V18.9766H82.025C81.9625 20.9661 81.8792 22.638 81.775 23.9922C81.65 25.4297 80.9521 26.1484 79.6812 26.1484C79.2542 26.1484 78.6865 26.1276 77.9781 26.0859C77.9156 25.7005 77.8323 25.2682 77.7281 24.7891C78.4573 24.8932 79.0667 24.9453 79.5562 24.9453C80.1604 24.9453 80.499 24.5286 80.5719 23.6953C80.6552 22.737 80.7177 21.5495 80.7594 20.1328H77.5172C77.4338 23.7526 76.7021 26.4297 75.3219 28.1641C75.0615 27.8099 74.7906 27.4505 74.5094 27.0859C75.6865 25.5234 76.275 23.0547 76.275 19.6797V15.4453H83.3766C83.3401 14.6224 83.3062 13.7318 83.275 12.7734H84.5719C84.5667 13.5078 84.5797 14.3984 84.6109 15.4453H89.9937V16.6016H84.65C84.7542 19.4036 85.012 21.4974 85.4234 22.8828C86.4338 21.513 87.2646 19.9609 87.9156 18.2266L89.15 18.7422C88.2542 20.862 87.1786 22.7057 85.9234 24.2734C86.6891 25.8307 87.4365 26.6094 88.1656 26.6094C88.4312 26.6094 88.6344 26.3672 88.775 25.8828C88.9208 25.1224 89.0354 24.3411 89.1187 23.5391C89.5667 23.7161 89.9625 23.862 90.3062 23.9766C90.15 25.0911 89.9781 26.0026 89.7906 26.7109C89.5927 27.4714 89.1552 27.8828 88.4781 27.9453C87.8427 27.987 87.2333 27.7734 86.65 27.3047C86.0198 26.8203 85.4833 26.1536 85.0406 25.3047C84.1604 26.2526 83.2021 27.0859 82.1656 27.8047C81.8948 27.4922 81.5979 27.1797 81.275 26.8672ZM85.7594 13.5391L86.4156 12.7266C87.2906 13.2266 88.1083 13.7474 88.8687 14.2891L88.1187 15.2266C87.3687 14.6328 86.5823 14.0703 85.7594 13.5391ZM99.1844 17.1641H100.817C100.833 16.3359 100.851 14.8568 100.872 12.7266H102.012C101.992 14.6953 101.968 16.1745 101.942 17.1641H106.512V18.3047H103.731V25.7891C103.731 26.2786 103.924 26.5234 104.309 26.5234H104.825C105.273 26.5234 105.539 26.2161 105.622 25.6016C105.726 24.9766 105.794 24.1797 105.825 23.2109C106.565 23.5026 106.955 23.6589 106.997 23.6797C106.903 24.6068 106.815 25.3724 106.731 25.9766C106.575 27.0911 105.992 27.6484 104.981 27.6484H103.934C103.039 27.6484 102.591 27.1016 102.591 26.0078V18.3047H101.895C101.828 22.4297 100.648 25.7214 98.3562 28.1797C98.0854 27.888 97.7885 27.5859 97.4656 27.2734C99.6219 24.9818 100.723 21.9922 100.77 18.3047H99.1844V17.1641ZM92.575 17.2578H98.7625V21.9609H97.6687V21.5859H96.2156V26.2109C96.2156 27.2734 95.6844 27.8047 94.6219 27.8047C94.1531 27.8047 93.6948 27.7943 93.2469 27.7734C93.2052 27.3672 93.1219 26.9661 92.9969 26.5703C93.4656 26.6432 93.9448 26.6797 94.4344 26.6797C94.8927 26.6797 95.1219 26.4453 95.1219 25.9766V21.5859H93.6687V21.9609H92.575V17.2578ZM91.6375 14.8047H95.4969C95.226 14.2526 94.8979 13.6797 94.5125 13.0859L95.5594 12.5859C95.9448 13.1589 96.2833 13.737 96.575 14.3203L95.575 14.8047H99.6375V15.8672H91.6375V14.8047ZM97.6687 18.2891H93.6687V20.5547H97.6687V18.2891ZM93.2312 22.5078L94.2469 22.9141C93.7365 24.2266 93.1531 25.3932 92.4969 26.4141C92.2365 26.2266 91.9031 26.0443 91.4969 25.8672C92.174 24.8464 92.7521 23.7266 93.2312 22.5078ZM102.856 14.3047L103.591 13.4922C104.414 14.0755 105.21 14.6849 105.981 15.3203L105.169 16.2266C104.69 15.7682 103.919 15.1276 102.856 14.3047ZM96.7156 22.8516L97.6062 22.2891C98.2 23.0599 98.6948 23.7682 99.0906 24.4141L98.1219 25.0703C97.7365 24.362 97.2677 23.6224 96.7156 22.8516Z" fill="#B6E9FF"/>
<defs>
<linearGradient id="paint0_linear_235_216" x1="74" y1="0" x2="74" y2="40" gradientUnits="userSpaceOnUse">
<stop stop-color="#4200FF" stop-opacity="0"/>
<stop offset="1" stop-color="#2400FF" stop-opacity="0.14"/>
</linearGradient>
<linearGradient id="paint1_linear_235_216" x1="74" y1="0" x2="74" y2="40" gradientUnits="userSpaceOnUse">
<stop stop-color="#80D1FF" stop-opacity="0.59"/>
<stop offset="1" stop-color="#80D9FF"/>
</linearGradient>
</defs>
</svg>
